<?xml version="1.0" encoding="UTF-8" standalone="no"?>
<!-- Created with Inkscape (http://www.inkscape.org/) -->

<svg
   version="1.1"
   id="svg1"
   width="792"
   height="422"
   viewBox="0 0 792 422"
   sodipodi:docname="radiohola.svg"
   inkscape:version="1.3.2 (091e20e, 2023-11-25, custom)"
   xmlns:inkscape="http://www.inkscape.org/namespaces/inkscape"
   xmlns:sodipodi="http://sodipodi.sourceforge.net/DTD/sodipodi-0.dtd"
   xmlns="http://www.w3.org/2000/svg"
   xmlns:svg="http://www.w3.org/2000/svg">
  <defs
     id="defs1">
    <clipPath
       clipPathUnits="userSpaceOnUse"
       id="clipPath2">
      <path
         d="M 0,841.89 H 1190.551 V 0 H 0 Z"
         transform="translate(-408.66671,-293.1568)"
         id="path2" />
    </clipPath>
    <clipPath
       clipPathUnits="userSpaceOnUse"
       id="clipPath4">
      <path
         d="M 0,841.89 H 1190.551 V 0 H 0 Z"
         transform="translate(-788.66672,-604.15642)"
         id="path4" />
    </clipPath>
    <clipPath
       clipPathUnits="userSpaceOnUse"
       id="clipPath6">
      <path
         d="M 0,841.89 H 1190.551 V 0 H 0 Z"
         transform="translate(-462.17591,-330.06691)"
         id="path6" />
    </clipPath>
    <clipPath
       clipPathUnits="userSpaceOnUse"
       id="clipPath8">
      <path
         d="M 0,841.89 H 1190.551 V 0 H 0 Z"
         transform="translate(-379.68971,-434.79991)"
         id="path8" />
    </clipPath>
    <clipPath
       clipPathUnits="userSpaceOnUse"
       id="clipPath10">
      <path
         d="M 0,841.89 H 1190.551 V 0 H 0 Z"
         transform="translate(-546.23161,-357.84521)"
         id="path10" />
    </clipPath>
    <clipPath
       clipPathUnits="userSpaceOnUse"
       id="clipPath12">
      <path
         d="M 0,841.89 H 1190.551 V 0 H 0 Z"
         transform="translate(-547.24541,-429.38111)"
         id="path12" />
    </clipPath>
    <clipPath
       clipPathUnits="userSpaceOnUse"
       id="clipPath14">
      <path
         d="M 0,841.89 H 1190.551 V 0 H 0 Z"
         transform="translate(-720.18332,-316.31111)"
         id="path14" />
    </clipPath>
    <clipPath
       clipPathUnits="userSpaceOnUse"
       id="clipPath16">
      <path
         d="M 0,841.89 H 1190.551 V 0 H 0 Z"
         transform="translate(-677.61152,-507.17431)"
         id="path16" />
    </clipPath>
    <clipPath
       clipPathUnits="userSpaceOnUse"
       id="clipPath18">
      <path
         d="M 0,841.89 H 1190.551 V 0 H 0 Z"
         transform="translate(-785.17352,-421.87411)"
         id="path18" />
    </clipPath>
    <clipPath
       clipPathUnits="userSpaceOnUse"
       id="clipPath20">
      <path
         d="M 0,841.89 H 1190.551 V 0 H 0 Z"
         transform="translate(-792.79854,-507.51761)"
         id="path20" />
    </clipPath>
    <clipPath
       clipPathUnits="userSpaceOnUse"
       id="clipPath22">
      <path
         d="M 0,841.89 H 1190.551 V 0 H 0 Z"
         transform="translate(-608.40742,-498.31741)"
         id="path22" />
    </clipPath>
    <clipPath
       clipPathUnits="userSpaceOnUse"
       id="clipPath24">
      <path
         d="M 0,841.89 H 1190.551 V 0 H 0 Z"
         transform="translate(-555.64181,-556.46311)"
         id="path24" />
    </clipPath>
  </defs>
  <sodipodi:namedview
     id="namedview1"
     pagecolor="#ffffff"
     bordercolor="#000000"
     borderopacity="0.25"
     inkscape:showpageshadow="2"
     inkscape:pageopacity="0.0"
     inkscape:pagecheckerboard="0"
     inkscape:deskcolor="#d1d1d1"
     inkscape:zoom="1.1120853"
     inkscape:cx="425.32708"
     inkscape:cy="321.46814"
     inkscape:window-width="1920"
     inkscape:window-height="974"
     inkscape:window-x="-11"
     inkscape:window-y="-11"
     inkscape:window-maximized="1"
     inkscape:current-layer="layer-MC0">
    <inkscape:page
       x="0"
       y="0"
       inkscape:label="1"
       id="page1"
       width="792"
       height="422"
       margin="384.20801 393.62268 316.97867 402.66666"
       bleed="0" />
  </sodipodi:namedview>
  <g
     id="layer-MC0"
     inkscape:groupmode="layer"
     inkscape:label="Layer 1">
    <path
       id="path1"
       d="m 0,0 c -56.059,0 -101.667,45.607 -101.667,101.666 v 102.667 c 0,56.059 45.608,101.666 101.667,101.666 h 380 c 56.06,0 101.667,-45.607 101.667,-101.666 V 101.666 C 481.667,45.607 436.06,0 380,0 Z"
       style="fill:#15243d;fill-opacity:1;fill-rule:nonzero;stroke:none"
       transform="matrix(1.3333333,0,0,-1.3333333,143.53933,415.02051)"
       clip-path="url(#clipPath2)" />
    <path
       id="path3"
       d="m 0,0 h -380 c -58.816,0 -106.667,-47.85 -106.667,-106.667 V -209.333 C -486.667,-268.149 -438.816,-316 -380,-316 H 0 c 58.816,0 106.667,47.851 106.667,106.667 v 102.666 C 106.667,-47.85 58.816,0 0,0 m 0,-10 c 53.388,0 96.667,-43.279 96.667,-96.667 V -209.333 C 96.667,-262.721 53.388,-306 0,-306 h -380 c -53.388,0 -96.667,43.279 -96.667,96.667 v 102.666 c 0,53.388 43.279,96.667 96.667,96.667 z"
       style="fill:#8899d5;fill-opacity:1;fill-rule:nonzero;stroke:none"
       transform="matrix(1.3333333,0,0,-1.3333333,650.206,0.3543667)"
       clip-path="url(#clipPath4)" />
    <text
       id="text4"
       xml:space="preserve"
       x="424.93228"
       y="120.86757"
       style="font-size:16px;stroke-width:1.33333"><tspan
         style="font-variant:normal;font-weight:normal;font-stretch:normal;font-size:131.809px;font-family:'Bauhaus 93';writing-mode:lr-tb;fill:#ffffff;fill-opacity:1;fill-rule:nonzero;stroke:none;stroke-width:1.33333"
         x="424.93228 469.87912 544.74658 615.79163 648.74384"
         y="120.86757"
         sodipodi:role="line"
         id="tspan4">radio</tspan></text>
    <path
       id="path5"
       d="m 0,0 c -5.643,0 -10.747,2.297 -15.168,6.827 -5.377,5.51 -8.353,15.08 -9.097,29.258 l -0.003,0.131 c 0.237,18.269 2.063,34.893 5.428,49.41 3.347,14.444 6.641,26.396 9.789,35.524 l 0.082,0.271 c -6.127,1.673 -12.346,4.116 -18.541,7.284 -0.468,-1.106 -0.899,-2.176 -1.287,-3.196 -0.619,-1.627 -1.283,-3.41 -1.99,-5.346 -1.005,-2.951 -2.599,-7.258 -4.723,-12.762 -5.622,-14.306 -12.573,-26.623 -20.661,-36.62 -8.143,-10.067 -16.635,-17.338 -25.237,-21.61 -5.159,-2.563 -10.125,-3.861 -14.761,-3.861 -3.349,-0.001 -6.591,0.675 -9.637,2.009 l -0.091,0.043 c -4.516,2.256 -8.67,6.327 -12.346,12.101 -3.637,5.708 -6.069,12.974 -7.227,21.594 -1.157,8.598 -0.212,18.512 2.809,29.464 4.329,13.306 10.02,22.981 16.942,28.845 6.969,5.9 13.804,9.103 20.317,9.519 0.618,0.031 1.191,0.045 1.747,0.045 6.181,0 10.58,-1.791 13.077,-5.324 l 0.084,-0.129 c 2.584,-4.331 3.647,-8.967 3.161,-13.779 -0.469,-4.643 -1.774,-8.946 -3.88,-12.788 -2.123,-3.869 -4.474,-6.743 -6.987,-8.546 -1.531,-1.097 -2.933,-1.631 -4.286,-1.631 -1.464,0 -2.775,0.642 -3.79,1.857 l -0.095,0.114 -0.078,0.126 c -0.788,1.291 -0.928,2.768 -0.403,4.271 0.352,1.013 0.826,2.088 1.407,3.191 0.7,1.277 1.19,2.489 1.472,3.634 0.067,0.275 0.208,0.849 -0.804,1.801 0.007,-0.008 0.007,-0.01 0.005,-0.01 -0.006,0 -0.021,0.007 -0.026,0.009 0,-0.001 -0.531,-0.015 -1.676,-1.173 -1.048,-1.062 -2.581,-3.554 -3.939,-9.396 -0.572,-4.608 -0.994,-12.319 2.443,-13.049 0.363,-0.077 0.751,-0.116 1.154,-0.116 3.122,0 7.298,2.229 12.412,6.624 3.955,3.736 7.393,8.333 10.152,13.6 2.828,5.402 5.356,10.861 7.514,16.224 0.553,1.364 1.105,2.696 1.653,3.985 -1.909,-0.171 -2.58,-1.105 -2.949,-1.928 l -1.159,-2.59 -2.049,1.963 c -3.24,3.103 -4.883,6.457 -4.883,9.968 0,3.353 0.864,6.324 2.568,8.831 1.741,2.564 3.664,4.167 5.715,4.766 1.749,0.433 3.403,0.642 4.999,0.642 0.403,0 0.804,-0.014 1.202,-0.04 1.497,-0.098 3.163,-0.417 5.056,-0.971 2.16,5.843 3.901,10.716 5.182,14.504 1.005,3.185 2.211,6.693 3.573,10.386 1.175,3.188 2.734,7.198 4.643,11.944 -0.865,0.07 -1.736,0.106 -2.606,0.106 -5.189,0 -10.648,-1.267 -16.228,-3.766 -3.95,-1.68 -7.294,-3.379 -9.972,-5.064 -2.658,-1.671 -4.858,-3.32 -6.537,-4.901 -1.642,-1.548 -2.904,-3.039 -3.75,-4.43 -0.856,-1.407 -1.459,-2.683 -1.792,-3.796 -0.328,-1.09 -0.494,-2.035 -0.494,-2.812 0,-0.666 0.067,-1.352 0.201,-2.046 0.652,-0.744 1.204,-1.429 1.644,-2.04 0.557,-0.78 1.018,-1.596 1.373,-2.431 0.468,-1.109 0.576,-2.183 0.321,-3.197 -0.193,-0.758 -0.836,-2.107 -2.987,-2.672 -1.683,-0.417 -3.283,-0.625 -4.783,-0.625 -3.648,0 -6.831,1.207 -9.463,3.587 -3.559,3.216 -5.85,7.83 -6.809,13.714 -0.936,5.735 -0.345,12.018 1.755,18.673 l 0.031,0.099 0.042,0.095 c 4.224,9.733 10.176,17.233 17.691,22.291 7.421,4.993 15.53,8.376 24.105,10.054 6.841,1.338 13.507,2.017 19.815,2.017 1.505,0 3.015,-0.039 4.488,-0.114 5.371,-0.337 10.082,-2.002 14.025,-4.951 3.838,-2.87 6.958,-6.306 9.276,-10.213 2.301,-3.884 3.788,-7.539 4.422,-10.865 l 0.084,-0.446 -0.115,-0.438 c -1.614,-6.126 -4.153,-13.476 -7.546,-21.844 -3.199,-7.892 -7.787,-18.602 -13.648,-31.858 6.875,-2.469 13.345,-4.053 19.282,-4.719 5.078,12.939 9.973,23.918 14.558,32.653 4.752,9.053 10.261,18.269 16.372,27.391 l 0.624,0.931 1.12,-0.046 c 4.607,-0.191 8.097,-2.953 10.374,-8.21 2.158,-4.985 2.35,-9.928 0.571,-14.69 C 33.103,159.76 25.675,140.596 20.149,124.294 17.244,115.516 15.014,105.694 13.526,95.115 12.04,84.546 11.508,74.693 11.944,65.832 c 0.419,-8.517 1.98,-14.596 4.639,-18.071 1.99,-2.128 4.019,-3.417 6.031,-3.832 1.74,-0.358 3.372,-0.539 4.85,-0.539 0.445,0 0.879,0.016 1.302,0.048 0.521,0.047 1.045,0.072 1.532,0.072 2.432,0 4.254,-0.628 5.413,-1.866 l 0.275,-0.294 0.14,-0.376 C 37.583,37.055 36.802,32.091 33.739,25.799 30.861,19.885 26.711,14.347 21.406,9.339 15.963,4.201 10.06,1.176 3.858,0.344 2.607,0.12 1.281,0 0,0"
       style="fill:#eb431e;fill-opacity:1;fill-rule:nonzero;stroke:none"
       transform="matrix(1.3333333,0,0,-1.3333333,214.88493,365.80704)"
       clip-path="url(#clipPath6)" />
    <path
       id="path7"
       d="m 0,0 c 1.761,0 3.595,0.675 5.451,2.005 2.798,2.007 5.276,5.019 7.575,9.208 2.236,4.081 3.621,8.639 4.117,13.552 0.333,3.297 10e-4,6.516 -0.989,9.621 0.9,-1.623 2.137,-3.19 3.706,-4.694 l 2.659,-2.547 C 20.709,22.912 18.679,18.644 16.462,14.411 13.823,9.37 10.541,4.973 6.707,1.339 0.536,-3.95 -2.855,-4.741 -4.33,-4.741 c -0.264,0 -0.512,0.024 -0.74,0.072 -0.39,0.083 -1.672,1.932 -1.097,8.705 0.138,-0.336 0.304,-0.664 0.498,-0.982 l 0.155,-0.253 0.19,-0.227 C -3.937,0.914 -2.046,0 0,0 m 50.857,126.023 v 0 c -6.437,0 -13.233,-0.691 -20.2,-2.055 C 21.819,122.239 13.463,118.754 5.82,113.612 -2.017,108.336 -8.211,100.546 -12.59,90.457 l -0.083,-0.19 -0.062,-0.198 c -2.195,-6.957 -2.808,-13.55 -1.822,-19.597 1.034,-6.343 3.538,-11.348 7.442,-14.876 3.011,-2.722 6.646,-4.103 10.804,-4.103 1.662,0 3.423,0.227 5.236,0.676 l 0.028,0.007 0.028,0.007 c 3.26,0.857 4.174,3.16 4.415,4.11 0.361,1.433 0.217,2.975 -0.414,4.468 -0.414,0.976 -0.947,1.921 -1.587,2.815 -0.393,0.546 -0.859,1.135 -1.393,1.764 -0.054,0.395 -0.082,0.785 -0.082,1.164 0,0.4 0.071,1.112 0.409,2.234 0.285,0.953 0.818,2.073 1.585,3.334 0.754,1.239 1.903,2.589 3.415,4.016 1.583,1.49 3.679,3.059 6.228,4.662 2.59,1.629 5.838,3.278 9.656,4.901 l 0.035,0.015 0.035,0.015 c 5.21,2.334 10.289,3.541 15.104,3.59 C 44.945,85.644 43.736,82.51 42.78,79.915 41.412,76.207 40.2,72.683 39.176,69.439 38.028,66.047 36.51,61.783 34.653,56.73 c -1.319,0.306 -2.537,0.495 -3.677,0.57 -0.439,0.029 -0.888,0.043 -1.334,0.043 -1.756,0 -3.571,-0.227 -5.395,-0.677 l -0.082,-0.02 -0.082,-0.024 c -2.508,-0.733 -4.799,-2.604 -6.808,-5.562 -1.933,-2.845 -2.913,-6.194 -2.913,-9.955 0,-1.123 0.14,-2.227 0.419,-3.311 -0.325,0.664 -0.682,1.322 -1.071,1.974 l -0.079,0.133 -0.089,0.126 c -2.893,4.094 -7.843,6.17 -14.711,6.17 -0.587,0 -1.197,-0.016 -1.814,-0.046 L -3.013,46.15 -3.044,46.148 C -9.995,45.704 -17.222,42.343 -24.524,36.16 -31.735,30.052 -37.631,20.071 -42.05,6.494 L -42.078,6.408 -42.103,6.32 c -3.093,-11.214 -4.056,-21.396 -2.863,-30.264 1.197,-8.909 3.728,-16.447 7.523,-22.401 3.872,-6.083 8.293,-10.394 13.138,-12.815 l 0.091,-0.045 0.092,-0.041 c 3.3,-1.445 6.813,-2.178 10.439,-2.178 4.947,0 10.213,1.37 15.651,4.07 8.861,4.401 17.576,11.851 25.902,22.144 8.217,10.156 15.27,22.65 20.963,37.135 2.133,5.525 3.731,9.844 4.76,12.859 0.704,1.926 1.365,3.703 1.966,5.281 0.144,0.379 0.294,0.764 0.45,1.156 C 61,18.79 66.003,16.822 70.957,15.341 67.966,6.387 64.854,-5.036 61.698,-18.655 58.3,-33.311 56.457,-50.079 56.219,-68.491 l -0.002,-0.131 0.007,-0.131 c 0.77,-14.684 3.931,-24.677 9.663,-30.55 4.813,-4.93 10.398,-7.43 16.6,-7.43 1.371,0 2.786,0.125 4.207,0.373 6.595,0.904 12.842,4.104 18.57,9.511 5.483,5.175 9.776,10.908 12.76,17.039 3.315,6.811 4.121,12.289 2.463,16.748 l -0.28,0.753 -0.55,0.587 c -1.553,1.658 -3.865,2.499 -6.872,2.499 -0.547,0 -1.131,-0.027 -1.736,-0.082 -0.319,-0.024 -0.705,-0.038 -1.099,-0.038 -1.343,0 -2.84,0.167 -4.45,0.498 -1.573,0.325 -3.222,1.39 -4.9,3.165 -1.656,2.212 -3.683,6.924 -4.172,16.876 -0.43,8.738 0.097,18.463 1.565,28.907 1.471,10.461 3.674,20.165 6.546,28.843 5.501,16.227 12.91,35.345 22.013,56.796 l 0.034,0.08 0.031,0.082 c 1.966,5.263 1.761,10.708 -0.61,16.185 -3.248,7.501 -8.387,9.259 -12.126,9.413 l -2.24,0.093 -1.248,-1.863 C 104.241,90.55 98.696,81.272 93.912,72.157 89.465,63.686 84.734,53.132 79.833,40.751 c -4.771,0.654 -9.889,1.899 -15.285,3.719 5.451,12.361 9.75,22.416 12.796,29.93 3.425,8.447 5.99,15.878 7.626,22.087 l 0.231,0.876 -0.17,0.891 c -0.676,3.554 -2.246,7.426 -4.664,11.509 -2.455,4.137 -5.751,7.769 -9.799,10.797 -4.261,3.186 -9.333,4.983 -15.076,5.343 -1.553,0.081 -3.097,0.12 -4.635,0.12 m 0,-4 c 1.477,0 2.938,-0.037 4.385,-0.112 4.976,-0.312 9.286,-1.83 12.93,-4.554 3.643,-2.726 6.561,-5.937 8.753,-9.633 2.191,-3.698 3.584,-7.105 4.177,-10.218 -1.6,-6.072 -4.088,-13.274 -7.465,-21.603 -3.377,-8.33 -8.206,-19.579 -14.485,-33.747 8.411,-3.192 16.174,-5.099 23.283,-5.722 5.272,13.546 10.278,24.833 15.019,33.864 4.739,9.03 10.16,18.1 16.262,27.208 3.791,-0.157 6.665,-2.492 8.62,-7.006 1.955,-4.516 2.133,-8.915 0.534,-13.196 C 113.685,55.662 106.309,36.628 100.742,20.203 97.778,11.25 95.543,1.403 94.032,-9.34 92.521,-20.083 91.988,-29.97 92.433,-39 c 0.444,-9.031 2.146,-15.454 5.109,-19.267 2.311,-2.491 4.695,-3.989 7.154,-4.497 1.881,-0.386 3.633,-0.579 5.254,-0.579 0.498,0 0.983,0.018 1.456,0.054 0.489,0.044 0.948,0.066 1.379,0.066 1.865,0 3.182,-0.411 3.953,-1.233 1.244,-3.347 0.473,-7.883 -2.311,-13.604 -2.785,-5.723 -6.754,-11.015 -11.908,-15.88 -5.154,-4.865 -10.635,-7.688 -16.44,-8.467 -1.225,-0.217 -2.423,-0.326 -3.592,-0.326 -5.109,0 -9.688,2.075 -13.738,6.224 -4.976,5.099 -7.82,14.42 -8.531,27.966 0.236,18.216 2.029,34.544 5.377,48.985 3.346,14.44 6.589,26.216 9.731,35.324 0.235,0.777 0.473,1.556 0.711,2.335 -7.288,1.79 -14.634,4.671 -22.04,8.641 -0.83,-1.868 -1.555,-3.62 -2.177,-5.254 C 51.198,19.853 50.532,18.061 49.821,16.116 48.812,13.157 47.244,8.915 45.111,3.388 39.541,-10.781 32.758,-22.809 24.76,-32.694 16.762,-42.582 8.571,-49.608 0.188,-53.771 c -4.902,-2.435 -9.526,-3.653 -13.871,-3.653 -3.086,0 -6.029,0.614 -8.834,1.842 -4.208,2.102 -8.058,5.897 -11.553,11.386 -3.496,5.487 -5.807,12.415 -6.931,20.786 -1.127,8.366 -0.209,17.923 2.754,28.666 4.206,12.922 9.642,22.205 16.307,27.851 6.666,5.643 13.049,8.659 19.151,9.049 0.556,0.027 1.096,0.041 1.62,0.041 5.519,0 9.334,-1.492 11.444,-4.478 2.368,-3.97 3.332,-8.156 2.888,-12.552 C 12.719,20.766 11.504,16.759 9.519,13.138 7.534,9.519 5.401,6.891 3.121,5.256 1.953,4.419 0.912,4 0,4 c -0.868,0 -1.62,0.38 -2.255,1.14 -0.476,0.777 -0.549,1.634 -0.223,2.569 0.325,0.934 0.756,1.906 1.289,2.919 0.769,1.401 1.318,2.763 1.644,4.087 0.325,1.323 -0.133,2.569 -1.377,3.737 -0.423,0.359 -0.884,0.539 -1.385,0.539 -0.906,0 -1.94,-0.588 -3.103,-1.765 -1.808,-1.831 -3.303,-5.314 -4.488,-10.452 -1.186,-9.42 0.147,-14.537 3.999,-15.356 0.502,-0.106 1.025,-0.159 1.569,-0.159 3.631,0 8.202,2.368 13.716,7.108 4.206,3.97 7.745,8.699 10.62,14.188 2.873,5.487 5.406,10.956 7.598,16.406 0.947,2.335 1.866,4.514 2.755,6.539 -0.831,0.147 -1.6,0.22 -2.309,0.22 -2.678,0 -4.486,-1.047 -5.423,-3.139 -2.843,2.724 -4.265,5.565 -4.265,8.524 0,2.958 0.74,5.527 2.221,7.707 1.48,2.179 3.022,3.503 4.622,3.97 1.516,0.374 2.996,0.561 4.437,0.561 0.36,0 0.717,-0.011 1.072,-0.035 1.778,-0.116 3.91,-0.604 6.399,-1.46 2.488,6.695 4.443,12.144 5.865,16.348 1.007,3.192 2.191,6.637 3.555,10.335 1.362,3.696 3.228,8.465 5.598,14.304 -1.792,0.292 -3.605,0.438 -5.437,0.438 -5.499,0 -11.181,-1.314 -17.046,-3.941 -4.03,-1.713 -7.436,-3.444 -10.22,-5.196 C 16.643,82.385 14.363,80.671 12.585,78.998 10.808,77.322 9.444,75.708 8.497,74.151 7.549,72.594 6.883,71.174 6.498,69.89 6.112,68.605 5.92,67.476 5.92,66.504 5.92,65.528 6.039,64.536 6.276,63.525 7.045,62.668 7.667,61.908 8.142,61.249 8.616,60.587 9,59.905 9.297,59.205 9.593,58.504 9.666,57.863 9.519,57.279 9.371,56.695 8.853,56.285 7.964,56.052 6.459,55.679 5.033,55.493 3.689,55.493 c -3.152,0 -5.858,1.024 -8.122,3.07 -3.23,2.919 -5.287,7.103 -6.176,12.552 -0.889,5.449 -0.326,11.366 1.689,17.75 4.087,9.418 9.744,16.562 16.973,21.428 7.228,4.863 15.019,8.115 23.372,9.75 6.748,1.32 13.225,1.98 19.432,1.98"
       style="fill:#f7ee0a;fill-opacity:1;fill-rule:nonzero;stroke:none"
       transform="matrix(1.3333333,0,0,-1.3333333,104.90333,226.16304)"
       clip-path="url(#clipPath8)" />
    <path
       id="path9"
       d="m 0,0 c -4.646,0 -9.435,0.53 -14.235,1.575 -10.521,2.537 -18.654,7.443 -24.214,14.589 -5.535,7.111 -8.592,15.759 -9.084,25.701 -0.487,9.813 1.505,20.339 5.919,31.284 3.971,9.288 10.03,17.415 18.024,24.195 7.99,6.775 16.53,11.325 25.383,13.523 2.281,0.51 4.389,0.763 6.309,0.763 2.783,0 5.275,-0.529 7.406,-1.574 3.547,-1.741 6.329,-4.326 8.271,-7.682 1.841,-3.184 3.17,-6.556 3.953,-10.026 0.762,-3.384 1.27,-7.519 1.513,-12.292 l 0.138,-2.74 -2.651,0.706 c -3.395,0.905 -6.471,1.406 -9.145,1.49 -0.216,0.007 -0.435,0.01 -0.654,0.01 -2.447,0 -5.158,-0.426 -8.058,-1.265 -3.087,-0.894 -6.186,-2.658 -9.21,-5.243 -4.437,-4.05 -7.85,-9.114 -10.095,-15.01 -2.23,-5.854 -2.943,-11.303 -2.118,-16.196 0.753,-4.47 3.234,-7.317 7.581,-8.699 0.592,-0.109 1.21,-0.165 1.839,-0.165 2.947,0 6.365,1.212 10.158,3.603 4.881,3.075 9.627,7.788 14.106,14.007 4.495,6.24 8.058,13.78 10.591,22.41 3.852,11.678 4.777,21.867 2.772,30.347 -1.959,8.275 -6.904,13.818 -15.117,16.943 -3.423,1.302 -7.533,1.962 -12.217,1.962 -6.687,0 -14.73,-1.344 -23.909,-3.995 -3.789,-1.381 -7.028,-2.746 -9.627,-4.06 -2.577,-1.303 -4.688,-2.57 -6.274,-3.765 -1.54,-1.164 -2.712,-2.263 -3.484,-3.267 -0.764,-0.992 -1.295,-1.879 -1.58,-2.638 -0.335,-0.895 -0.405,-1.465 -0.405,-1.786 0,-0.342 0.04,-0.702 0.12,-1.075 0.659,-0.542 1.21,-1.047 1.643,-1.504 0.586,-0.624 1.072,-1.281 1.449,-1.957 0.751,-1.351 0.571,-2.476 0.288,-3.182 -0.425,-1.062 -1.414,-1.806 -2.942,-2.213 L -37.7,92.742 c -1.608,-0.303 -3.16,-0.456 -4.614,-0.456 -3.573,0 -6.713,0.919 -9.335,2.731 -3.678,2.54 -6.046,6.214 -7.04,10.918 -0.97,4.59 -0.365,9.561 1.797,14.776 l 0.047,0.112 0.059,0.105 c 3.276,5.809 7.577,10.564 12.787,14.131 5.129,3.511 10.868,6.203 17.057,8.002 6.109,1.774 12.438,2.979 18.81,3.581 6.319,0.595 12.421,0.897 18.139,0.897 22.038,-0.242 39.168,-6.516 50.934,-18.647 C 72.76,116.704 77.55,100.073 75.178,79.46 L 75.161,79.342 C 71.926,60.95 65.82,45.253 57.011,32.686 48.161,20.059 37.418,10.875 25.083,5.391 17.04,1.813 8.601,0 0,0"
       style="fill:#eb431e;fill-opacity:1;fill-rule:nonzero;stroke:none"
       transform="matrix(1.3333333,0,0,-1.3333333,326.9592,328.76931)"
       clip-path="url(#clipPath10)" />
    <path
       id="path11"
       d="m 0,0 c 2.791,2.376 5.622,3.991 8.417,4.8 2.719,0.787 5.243,1.186 7.502,1.186 0.199,0 0.396,-0.003 0.591,-0.009 2.522,-0.079 5.446,-0.558 8.693,-1.423 L 29.268,3.471 C 29.128,3.023 28.983,2.572 28.833,2.119 L 28.812,2.056 28.794,1.992 C 26.325,-6.421 22.861,-13.757 18.5,-19.813 14.171,-25.823 9.612,-30.359 4.95,-33.297 c -3.469,-2.186 -6.528,-3.295 -9.092,-3.295 -0.464,0 -0.919,0.038 -1.355,0.111 -3.584,1.173 -5.466,3.366 -6.093,7.085 -0.765,4.537 -0.087,9.635 2.015,15.152 C -7.45,-8.664 -4.229,-3.872 0,0 M 9.015,78.003 H 8.993 c -5.78,0 -11.946,-0.305 -18.326,-0.906 -6.498,-0.613 -12.951,-1.842 -19.181,-3.651 -6.393,-1.858 -12.324,-4.641 -17.628,-8.272 -5.465,-3.742 -9.973,-8.721 -13.4,-14.8 l -0.118,-0.21 -0.093,-0.222 c -2.32,-5.596 -2.962,-10.964 -1.907,-15.956 1.103,-5.222 3.748,-9.31 7.861,-12.151 2.961,-2.047 6.484,-3.085 10.471,-3.085 1.578,0 3.255,0.165 4.984,0.49 l 0.145,0.028 0.143,0.038 c 2.705,0.719 3.823,2.247 4.285,3.402 0.627,1.567 0.487,3.305 -0.394,4.892 -0.46,0.827 -1.044,1.616 -1.738,2.355 -0.356,0.376 -0.761,0.763 -1.225,1.168 0,0.015 0,0.031 0,0.046 0,0.035 0.008,0.362 0.279,1.084 0.147,0.393 0.491,1.081 1.291,2.121 0.663,0.862 1.708,1.835 3.106,2.891 1.489,1.122 3.498,2.326 5.97,3.576 2.514,1.27 5.657,2.596 9.345,3.941 8.97,2.587 16.805,3.898 23.288,3.898 4.44,0 8.311,-0.616 11.507,-1.832 7.545,-2.871 12.086,-7.952 13.881,-15.534 1.633,-6.904 1.217,-15.047 -1.231,-24.257 l -0.08,1.565 c -0.248,4.886 -0.772,9.135 -1.559,12.629 -0.827,3.668 -2.231,7.23 -4.171,10.587 -2.145,3.707 -5.213,6.559 -9.121,8.477 -2.41,1.181 -5.198,1.779 -8.288,1.779 -2.068,0 -4.322,-0.269 -6.7,-0.8 L 0.344,41.283 0.298,41.272 C -8.857,38.999 -17.67,34.31 -25.897,27.333 -34.13,20.351 -40.372,11.975 -44.45,2.438 L -44.467,2.4 -44.482,2.362 c -4.524,-11.217 -6.564,-22.028 -6.062,-32.132 0.513,-10.361 3.71,-19.388 9.503,-26.83 5.845,-7.513 14.351,-12.659 25.28,-15.295 l 0.043,-0.01 0.044,-0.01 c 4.939,-1.075 9.871,-1.621 14.66,-1.621 8.883,0 17.595,1.872 25.896,5.563 12.672,5.635 23.692,15.047 32.753,27.974 8.978,12.809 15.196,28.777 18.482,47.459 l 0.021,0.117 0.013,0.118 C 78.595,28.933 73.619,46.109 61.364,58.748 49.212,71.276 31.607,77.755 9.037,78.003 Z m -0.022,-4 C 30.557,73.766 47.058,67.752 58.492,55.963 69.925,44.173 74.488,28.237 72.178,8.153 68.978,-10.036 63.038,-25.321 54.36,-37.703 45.68,-50.086 35.311,-58.958 23.256,-64.318 c -7.821,-3.478 -15.912,-5.218 -24.27,-5.218 -4.525,0 -9.127,0.51 -13.809,1.529 -10.073,2.43 -17.76,7.05 -23.061,13.864 -5.303,6.812 -8.191,15.003 -8.665,24.571 -0.475,9.567 1.451,19.714 5.776,30.438 3.851,9.004 9.672,16.809 17.463,23.417 7.789,6.605 15.981,10.974 24.572,13.107 2.102,0.47 4.044,0.704 5.827,0.704 2.486,0 4.662,-0.456 6.525,-1.37 3.199,-1.57 5.673,-3.866 7.421,-6.888 1.746,-3.021 2.99,-6.176 3.732,-9.464 0.74,-3.288 1.229,-7.273 1.466,-11.953 C 22.679,9.367 19.479,9.886 16.636,9.975 16.399,9.982 16.16,9.986 15.919,9.986 13.271,9.986 10.4,9.538 7.305,8.642 3.928,7.664 0.609,5.783 -2.648,2.998 c -4.741,-4.325 -8.296,-9.597 -10.665,-15.818 -2.37,-6.221 -3.11,-11.968 -2.221,-17.24 0.888,-5.274 3.91,-8.709 9.064,-10.309 0.754,-0.148 1.53,-0.223 2.328,-0.223 3.346,0 7.087,1.303 11.224,3.911 5.124,3.228 10.012,8.072 14.664,14.53 4.65,6.457 8.278,14.13 10.886,23.017 3.968,12.026 4.901,22.483 2.799,31.37 -2.103,8.886 -7.554,15.004 -16.351,18.351 -3.669,1.395 -7.978,2.093 -12.929,2.093 -6.923,0 -15.099,-1.364 -24.529,-4.093 -3.91,-1.422 -7.213,-2.814 -9.909,-4.177 -2.696,-1.363 -4.887,-2.68 -6.576,-3.954 -1.688,-1.275 -2.977,-2.488 -3.866,-3.643 -0.888,-1.155 -1.51,-2.208 -1.866,-3.155 -0.355,-0.949 -0.533,-1.778 -0.533,-2.489 0,-0.711 0.118,-1.452 0.355,-2.221 0.83,-0.653 1.48,-1.231 1.956,-1.733 0.473,-0.504 0.857,-1.022 1.155,-1.556 0.296,-0.533 0.355,-1.021 0.178,-1.465 -0.178,-0.445 -0.711,-0.786 -1.6,-1.023 -1.492,-0.281 -2.907,-0.421 -4.244,-0.421 -3.173,0 -5.905,0.792 -8.197,2.376 -3.259,2.251 -5.333,5.48 -6.221,9.687 -0.889,4.206 -0.326,8.738 1.688,13.596 3.14,5.569 7.199,10.056 12.175,13.464 4.977,3.407 10.471,5.984 16.485,7.732 6.012,1.746 12.16,2.917 18.44,3.51 6.279,0.591 12.264,0.888 17.951,0.888"
       style="fill:#f7ee0a;fill-opacity:1;fill-rule:nonzero;stroke:none"
       transform="matrix(1.3333333,0,0,-1.3333333,328.31093,233.38811)"
       clip-path="url(#clipPath12)" />
    <path
       id="path13"
       d="m 0,0 c -3.938,0 -8.016,0.828 -12.121,2.46 -7.244,2.88 -14.435,7.23 -21.371,12.933 -6.848,5.626 -13.253,11.637 -19.036,17.868 -5.747,6.193 -10.556,11.619 -14.292,16.125 -0.993,1.189 -1.913,2.27 -2.75,3.225 -7.816,-4.685 -15.31,-7.104 -22.301,-7.193 l -0.563,-0.003 c -7.212,-10e-4 -13.629,1.767 -19.07,5.251 -7.036,4.798 -10.163,10.272 -9.346,16.306 0.774,5.707 3.821,10.949 9.055,15.581 5.109,4.52 11.075,7.644 17.732,9.285 2.38,0.587 4.711,0.885 6.926,0.885 3.545,0 6.898,-0.757 9.993,-2.254 7.622,10.271 15.134,21.841 22.349,34.415 7.115,12.406 14.328,25.535 21.46,39.066 -0.741,0.041 -1.501,0.061 -2.275,0.061 -2.754,0 -5.785,-0.26 -9.004,-0.774 -5.428,-0.866 -10.187,-2.003 -14.145,-3.38 -3.811,-1.329 -7.063,-2.67 -9.663,-3.984 -2.578,-1.303 -4.689,-2.57 -6.274,-3.766 -1.545,-1.167 -2.724,-2.258 -3.501,-3.242 -0.744,-0.943 -1.249,-1.791 -1.499,-2.52 -0.315,-0.916 -0.381,-1.481 -0.381,-1.794 0,-0.32 0.04,-0.664 0.12,-1.03 0.658,-0.542 1.209,-1.047 1.644,-1.506 0.584,-0.62 1.07,-1.277 1.449,-1.955 0.75,-1.355 0.57,-2.479 0.289,-3.184 -0.425,-1.062 -1.415,-1.806 -2.944,-2.212 l -0.143,-0.033 c -1.608,-0.302 -3.16,-0.456 -4.614,-0.456 -3.573,0 -6.714,0.919 -9.335,2.732 -3.674,2.537 -6.057,6.206 -7.082,10.905 -1.006,4.6 -0.384,9.583 1.847,14.809 3.15,7.119 9.186,12.978 17.95,17.437 8.561,4.356 18.302,7.146 28.954,8.293 3.16,0.34 6.312,0.512 9.369,0.512 7.26,0 14.322,-0.972 20.991,-2.889 9.7,-2.79 17.147,-8.061 22.136,-15.666 l 0.567,-0.866 -0.379,-0.963 c -6.351,-16.146 -14.818,-33.05 -25.163,-50.243 -9.931,-16.501 -19.455,-31.147 -28.327,-43.56 1.195,-1.102 2.53,-2.391 3.988,-3.849 3.955,-3.838 8.781,-8.172 14.32,-12.862 5.455,-4.617 11.513,-8.627 18.008,-11.917 6.125,-3.105 12.502,-4.678 18.953,-4.678 0.228,0 0.455,0.002 0.682,0.006 0.316,-0.004 0.57,-0.006 0.824,-0.006 3.812,0 7.507,0.404 10.982,1.199 3.742,0.858 8.115,2.251 12.998,4.143 0.925,0.47 1.819,0.709 2.661,0.709 1.269,0 3.567,-0.561 4.698,-4.313 0.943,-3.136 0.762,-7.205 -0.553,-12.439 C 33.538,25.602 30.882,20.367 26.917,15.11 22.918,9.812 17.157,5.321 9.794,1.762 L 9.698,1.715 9.598,1.68 C 6.483,0.565 3.254,0 0,0"
       style="fill:#eb431e;fill-opacity:1;fill-rule:nonzero;stroke:none"
       transform="matrix(1.3333333,0,0,-1.3333333,558.8948,384.14811)"
       clip-path="url(#clipPath14)" />
    <path
       id="path15"
       d="m 0,0 h -0.002 c -3.128,0 -6.352,-0.176 -9.583,-0.524 -10.894,-1.173 -20.868,-4.032 -29.646,-8.499 -9.185,-4.673 -15.531,-10.859 -18.861,-18.387 l -0.011,-0.024 -0.01,-0.023 c -2.398,-5.616 -3.059,-11.007 -1.962,-16.022 1.136,-5.209 3.794,-9.288 7.899,-12.124 2.961,-2.047 6.485,-3.085 10.471,-3.085 1.578,0 3.255,0.165 4.984,0.491 l 0.145,0.027 0.143,0.038 c 2.705,0.719 3.824,2.247 4.286,3.402 0.627,1.568 0.487,3.305 -0.394,4.893 -0.461,0.826 -1.045,1.616 -1.739,2.354 -0.356,0.377 -0.761,0.763 -1.225,1.169 v 0.002 c 0,0.036 0.008,0.375 0.271,1.142 0.101,0.292 0.385,0.927 1.18,1.933 0.671,0.85 1.726,1.821 3.136,2.886 1.489,1.123 3.498,2.327 5.97,3.576 2.523,1.275 5.692,2.581 9.421,3.881 3.844,1.337 8.488,2.445 13.799,3.293 2.723,0.434 5.298,0.682 7.672,0.737 -6.624,-12.492 -13.305,-24.618 -19.902,-36.12 -6.876,-11.984 -14.022,-23.047 -21.271,-32.933 -2.934,1.18 -6.061,1.776 -9.336,1.776 -2.376,0 -4.868,-0.317 -7.405,-0.942 -6.974,-1.719 -13.224,-4.993 -18.578,-9.73 -5.604,-4.959 -8.871,-10.614 -9.712,-16.81 -0.928,-6.845 2.488,-12.967 10.153,-18.194 l 0.047,-0.033 0.049,-0.031 c 5.768,-3.694 12.547,-5.568 20.149,-5.568 0.195,0 0.391,0.002 0.587,0.004 6.911,0.088 14.247,2.316 21.85,6.629 0.522,-0.61 1.071,-1.259 1.643,-1.946 3.751,-4.524 8.584,-9.978 14.359,-16.201 5.845,-6.296 12.316,-12.37 19.233,-18.053 7.096,-5.833 14.465,-10.29 21.901,-13.246 4.342,-1.726 8.669,-2.601 12.861,-2.601 3.484,0 6.94,0.604 10.271,1.796 l 0.201,0.072 0.192,0.093 c 7.652,3.699 13.658,8.39 17.849,13.944 4.127,5.473 6.899,10.948 8.239,16.275 1.405,5.596 1.579,10.012 0.53,13.502 -1.561,5.179 -5.146,5.738 -6.614,5.738 -1.129,0 -2.296,-0.295 -3.473,-0.878 -4.757,-1.839 -9.006,-3.192 -12.633,-4.023 -3.328,-0.762 -6.873,-1.149 -10.535,-1.149 -0.245,0 -0.49,0.002 -0.736,0.005 l -0.061,0.001 -0.061,-0.001 c -0.216,-0.003 -0.432,-0.005 -0.647,-0.005 -6.135,0 -12.208,1.501 -18.05,4.461 -6.356,3.22 -12.284,7.143 -17.62,11.66 -5.495,4.652 -10.278,8.949 -14.218,12.771 -0.967,0.967 -1.882,1.861 -2.74,2.677 8.613,12.146 17.818,26.346 27.398,42.266 10.403,17.288 18.919,34.293 25.311,50.541 l 0.758,1.927 -1.136,1.731 C 39.539,-11.442 31.715,-5.893 21.543,-2.967 14.694,-0.998 7.446,0 0,0 m -0.002,-4 c 7.106,0 13.918,-0.937 20.439,-2.811 9.27,-2.667 16.275,-7.614 21.016,-14.841 -6.34,-16.116 -14.678,-32.763 -25.016,-49.944 -10.34,-17.181 -20.1,-32.14 -29.281,-44.878 1.48,-1.303 3.228,-2.962 5.242,-4.976 4.029,-3.91 8.844,-8.236 14.441,-12.975 5.6,-4.74 11.731,-8.798 18.397,-12.175 6.439,-3.262 13.058,-4.893 19.858,-4.893 0.238,0 0.476,0.002 0.714,0.006 0.264,-0.004 0.528,-0.006 0.791,-0.006 3.979,0 7.787,0.416 11.428,1.25 3.879,0.889 8.338,2.31 13.375,4.265 0.677,0.357 1.289,0.535 1.837,0.535 1.276,0 2.204,-0.963 2.784,-2.889 0.828,-2.756 0.635,-6.546 -0.578,-11.375 -1.215,-4.828 -3.733,-9.775 -7.553,-14.842 -3.822,-5.064 -9.287,-9.315 -16.396,-12.752 -2.912,-1.041 -5.887,-1.562 -8.924,-1.562 -3.701,0 -7.495,0.773 -11.383,2.318 -7.08,2.815 -14.027,7.02 -20.84,12.619 -6.812,5.598 -13.094,11.494 -18.84,17.684 -5.746,6.192 -10.486,11.539 -14.218,16.041 -1.481,1.777 -2.786,3.288 -3.91,4.532 -8.058,-5.095 -15.627,-7.686 -22.706,-7.776 -0.179,-0.003 -0.359,-0.004 -0.537,-0.004 -6.856,0 -12.853,1.645 -17.991,4.936 -6.341,4.325 -9.154,9.109 -8.443,14.353 0.711,5.242 3.51,10.026 8.398,14.351 4.888,4.325 10.516,7.272 16.885,8.842 2.235,0.551 4.385,0.827 6.448,0.827 3.817,0 7.34,-0.942 10.57,-2.826 8.056,10.723 15.892,22.72 23.506,35.991 7.612,13.271 15.241,27.194 22.883,41.768 -1.706,0.237 -3.517,0.355 -5.432,0.355 -2.873,0 -5.979,-0.266 -9.32,-0.799 -5.57,-0.889 -10.398,-2.044 -14.486,-3.466 -3.91,-1.363 -7.213,-2.726 -9.908,-4.088 -2.697,-1.363 -4.888,-2.681 -6.577,-3.954 -1.688,-1.276 -2.977,-2.475 -3.865,-3.6 -0.889,-1.126 -1.497,-2.163 -1.822,-3.11 -0.326,-0.948 -0.489,-1.764 -0.489,-2.443 0,-0.682 0.118,-1.409 0.356,-2.178 0.829,-0.653 1.48,-1.231 1.955,-1.733 0.473,-0.504 0.858,-1.022 1.155,-1.555 0.296,-0.533 0.355,-1.022 0.178,-1.466 -0.178,-0.444 -0.711,-0.786 -1.6,-1.023 -1.492,-0.281 -2.907,-0.421 -4.244,-0.421 -3.173,0 -5.905,0.792 -8.197,2.377 -3.259,2.25 -5.347,5.479 -6.265,9.686 -0.92,4.206 -0.342,8.738 1.732,13.597 2.962,6.694 8.634,12.175 17.019,16.44 8.382,4.266 17.802,6.961 28.259,8.087 3.104,0.334 6.156,0.501 9.155,0.501"
       style="fill:#f7ee0a;fill-opacity:1;fill-rule:nonzero;stroke:none"
       transform="matrix(1.3333333,0,0,-1.3333333,502.1324,129.66384)"
       clip-path="url(#clipPath16)" />
    <path
       id="path17"
       d="m 0,0 c 1.279,-0.442 2.429,-1.022 3.444,-1.74 2.551,6.007 5.266,11.513 8.087,16.401 0.206,0.356 0.413,0.713 0.621,1.07 C 8.818,11.792 4.741,6.514 0,0 m -62.664,-5.989 c -0.831,-3.956 -0.38,-6.591 1.34,-7.834 1.079,-0.78 2.397,-1.159 4.03,-1.159 1.302,0 2.797,0.25 4.444,0.743 2.204,0.659 4.47,1.771 6.776,3.322 -2.657,-0.544 -4.766,-1.084 -6.302,-1.618 -2.492,-0.854 -3.468,-0.964 -4.04,-0.964 -0.427,0 -0.799,0.072 -1.137,0.216 l -0.136,0.059 -0.126,0.078 c -1.285,0.794 -2.815,2.374 -2.815,5.39 0,1.623 0.599,3.932 3.419,5.796 0.23,0.24 0.536,0.686 0.834,1.505 0.217,0.602 0.284,1.12 0.205,1.572 -0.058,0.007 -0.137,0.012 -0.236,0.012 -0.708,0 -1.699,-0.543 -2.792,-1.528 -1.251,-1.128 -2.416,-3.008 -3.464,-5.59 m 79.326,-85.907 c -5.578,-0.001 -10.634,1.735 -15.025,5.158 -5.421,4.229 -8.549,11.904 -9.297,22.814 -0.303,9.688 0.182,18.663 1.44,26.749 1.153,7.403 2.324,13.258 3.489,17.43 -1.693,1.756 -4.409,3.123 -8.098,4.079 -4.852,-7.043 -10.912,-14.029 -18.032,-20.78 -7.575,-7.182 -15.801,-12.695 -24.452,-16.385 -4.884,-2.083 -9.766,-3.138 -14.511,-3.138 -3.906,0 -7.806,0.716 -11.589,2.127 -4.484,1.729 -8.55,4.852 -12.104,9.289 -3.569,4.452 -5.791,10.175 -6.601,17.011 -0.808,6.803 0.675,14.752 4.408,23.626 l 0.033,0.079 0.04,0.076 c 5.141,9.791 11.44,16.767 18.72,20.733 6.819,3.713 13.318,5.596 19.316,5.596 0.381,0 0.76,-0.007 1.138,-0.022 6.657,-0.264 11.069,-1.879 13.486,-4.935 2.095,-2.928 3.057,-5.906 2.918,-8.93 -0.067,-1.465 -0.308,-2.9 -0.72,-4.295 3.293,0.74 7.042,1.346 11.203,1.809 5.706,5.939 10.999,11.523 15.738,16.605 10.311,11.242 21.587,22.612 33.549,33.827 -2.55,0.415 -5.322,0.625 -8.285,0.625 -1.757,0 -3.614,-0.074 -5.52,-0.219 -6.776,-0.517 -12.576,-1.644 -17.238,-3.35 -3.781,-1.338 -6.976,-2.665 -9.517,-3.95 -2.513,-1.271 -4.561,-2.506 -6.087,-3.67 -1.469,-1.122 -2.576,-2.183 -3.291,-3.152 -0.684,-0.929 -1.133,-1.749 -1.335,-2.439 -0.242,-0.839 -0.263,-1.341 -0.239,-1.614 0.03,-0.323 0.124,-0.69 0.283,-1.095 0.637,-0.546 1.183,-1.032 1.627,-1.45 0.657,-0.62 1.186,-1.29 1.579,-1.996 0.75,-1.35 0.57,-2.475 0.288,-3.181 -0.425,-1.062 -1.415,-1.806 -2.944,-2.213 l -0.143,-0.032 c -1.62,-0.306 -3.185,-0.46 -4.65,-0.46 -3.552,0 -6.677,0.902 -9.289,2.684 -3.682,2.51 -6.054,6.156 -7.05,10.834 -0.967,4.549 -0.339,9.521 1.868,14.778 2.419,6.824 7.943,12.628 16.416,17.252 8.268,4.512 17.89,7.519 28.599,8.937 3.652,0.483 7.299,0.728 10.841,0.728 6.875,0 13.634,-0.922 20.089,-2.741 9.644,-2.719 17.308,-7.956 22.794,-15.571 3.859,-0.311 6.771,-2.015 8.669,-5.073 2.09,-3.377 1.612,-7.855 -1.419,-13.312 C 53.688,40.103 49.43,31.882 45.072,22.462 40.714,13.046 36.888,3.169 33.698,-6.895 c -3.163,-9.982 -5.031,-19.373 -5.552,-27.911 -0.498,-8.146 0.929,-14.704 4.24,-19.498 1.636,-1.546 3.4,-2.463 5.386,-2.802 2.006,-0.342 3.95,-0.516 5.774,-0.516 0.258,0 0.514,0.003 0.767,0.01 h 0.026 c 1.504,0 2.724,-0.062 3.781,-0.191 1.396,-0.169 2.46,-0.588 3.251,-1.28 l 0.325,-0.285 0.179,-0.393 c 1.477,-3.249 0.64,-7.387 -2.487,-12.299 -2.876,-4.511 -6.958,-8.755 -12.135,-12.615 -5.268,-3.927 -10.898,-6.268 -16.733,-6.959 -1.288,-0.173 -2.596,-0.262 -3.858,-0.262"
       style="fill:#eb431e;fill-opacity:1;fill-rule:nonzero;stroke:none"
       transform="matrix(1.3333333,0,0,-1.3333333,645.5484,243.39744)"
       clip-path="url(#clipPath18)" />
    <path
       id="path19"
       d="m 0,0 h -0.001 c -3.63,0 -7.365,-0.251 -11.103,-0.745 -10.954,-1.45 -20.81,-4.533 -29.295,-9.163 -8.898,-4.856 -14.725,-11.007 -17.324,-18.287 -2.351,-5.621 -3.009,-10.976 -1.958,-15.916 1.106,-5.199 3.757,-9.26 7.88,-12.07 2.949,-2.012 6.454,-3.032 10.415,-3.032 1.589,0 3.277,0.166 5.02,0.494 l 0.145,0.028 0.143,0.038 c 2.704,0.719 3.823,2.247 4.285,3.402 0.627,1.567 0.487,3.305 -0.394,4.893 -0.495,0.889 -1.15,1.721 -1.949,2.476 -0.375,0.352 -0.796,0.731 -1.277,1.15 -0.013,0.061 -0.018,0.101 -0.02,0.123 0,0.001 -0.011,0.263 0.17,0.888 0.073,0.251 0.307,0.833 1.021,1.801 0.414,0.562 1.252,1.495 2.895,2.749 1.428,1.091 3.371,2.26 5.776,3.476 2.465,1.246 5.58,2.539 9.261,3.842 4.53,1.657 10.15,2.745 16.743,3.248 1.856,0.141 3.662,0.213 5.368,0.213 1.301,0 2.562,-0.041 3.78,-0.124 -10.835,-10.288 -21.081,-20.686 -30.529,-30.988 -4.572,-4.902 -9.686,-10.3 -15.196,-16.039 -2.743,-0.319 -5.308,-0.702 -7.683,-1.145 0.069,0.54 0.116,1.084 0.141,1.633 0.16,3.484 -0.927,6.884 -3.229,10.107 l -0.057,0.08 -0.061,0.077 c -2.801,3.541 -7.7,5.403 -14.975,5.692 -0.405,0.016 -0.81,0.024 -1.218,0.024 -6.336,0 -13.157,-1.965 -20.272,-5.84 -7.635,-4.159 -14.207,-11.412 -19.535,-21.56 l -0.079,-0.151 -0.066,-0.157 c -3.869,-9.197 -5.401,-17.487 -4.551,-24.64 0.855,-7.211 3.22,-13.277 7.027,-18.026 3.777,-4.715 8.126,-8.044 12.924,-9.895 4.049,-1.511 8.183,-2.269 12.329,-2.269 5.016,0 10.162,1.11 15.295,3.299 8.871,3.784 17.297,9.427 25.044,16.773 6.824,6.471 12.693,13.16 17.479,19.918 2.111,-0.657 3.804,-1.476 5.023,-2.429 -1.082,-4.141 -2.139,-9.559 -3.213,-16.46 -1.276,-8.207 -1.77,-17.306 -1.467,-27.044 l 0.002,-0.074 0.005,-0.075 c 0.789,-11.501 4.174,-19.661 10.062,-24.253 4.752,-3.704 10.221,-5.582 16.256,-5.582 1.341,0 2.728,0.094 4.123,0.28 6.178,0.737 12.121,3.206 17.663,7.338 5.373,4.005 9.62,8.427 12.625,13.143 3.515,5.52 4.397,10.298 2.623,14.202 l -0.357,0.787 -0.651,0.569 c -1.089,0.952 -2.545,1.544 -4.33,1.76 -1.141,0.139 -2.448,0.207 -3.991,0.207 h -0.053 l -0.054,-0.002 c -0.236,-0.006 -0.474,-0.009 -0.714,-0.009 -1.712,0 -3.542,0.164 -5.438,0.487 -1.523,0.26 -2.9,0.962 -4.197,2.143 -2.964,4.403 -4.232,10.477 -3.769,18.064 0.511,8.374 2.349,17.602 5.463,27.428 3.163,9.984 6.959,19.782 11.282,29.122 4.329,9.358 8.554,17.517 12.56,24.251 l 0.03,0.051 0.028,0.051 c 3.41,6.138 3.871,11.297 1.372,15.335 -1.487,2.397 -4.267,5.216 -9.278,5.912 C 38.26,-10.82 30.416,-5.574 20.631,-2.816 13.999,-0.947 7.057,0 0,0 m -64.919,-102.626 c 1.503,0 3.176,0.276 5.018,0.828 4.355,1.302 8.812,4.146 13.375,8.531 -6.518,-1.008 -11.228,-2.015 -14.13,-3.022 -1.66,-0.568 -2.788,-0.853 -3.385,-0.853 -0.149,0 -0.265,0.018 -0.348,0.054 -1.244,0.769 -1.866,1.999 -1.866,3.688 0,1.688 0.889,3.095 2.666,4.221 0.592,0.533 1.08,1.333 1.467,2.399 0.384,1.067 0.458,2.044 0.222,2.933 -0.238,0.888 -0.949,1.333 -2.133,1.333 -1.244,0 -2.622,-0.682 -4.132,-2.044 -1.512,-1.363 -2.859,-3.526 -4.044,-6.487 -1.066,-4.918 -0.371,-8.265 2.089,-10.042 1.417,-1.026 3.152,-1.539 5.201,-1.539 m 82.466,49.882 c -1.186,-1.244 -2.37,-2.488 -3.555,-3.732 -2.903,-2.963 -6.309,-6.709 -10.22,-11.241 -3.91,-4.533 -8.828,-10.917 -14.751,-19.152 3.317,-0.533 5.834,-1.837 7.553,-3.91 2.844,6.99 5.865,13.255 9.065,18.796 3.199,5.539 6.634,11.122 10.308,16.751 0.533,0.829 1.067,1.658 1.6,2.488 M -0.001,-4 c 6.722,0 13.237,-0.888 19.547,-2.666 9.567,-2.697 16.988,-7.895 22.262,-15.596 3.672,-0.06 6.353,-1.452 8.043,-4.177 1.687,-2.726 1.199,-6.487 -1.467,-11.286 -4.088,-6.873 -8.34,-15.078 -12.752,-24.616 -4.415,-9.539 -8.236,-19.404 -11.465,-29.593 -3.23,-10.191 -5.109,-19.655 -5.643,-28.394 -0.533,-8.739 1.037,-15.715 4.71,-20.927 1.955,-1.896 4.147,-3.051 6.577,-3.466 2.127,-0.363 4.164,-0.544 6.11,-0.544 0.276,0 0.549,0.003 0.821,0.011 1.362,0 2.532,-0.059 3.511,-0.178 0.976,-0.118 1.702,-0.385 2.177,-0.8 1.184,-2.606 0.399,-6.072 -2.355,-10.397 -2.756,-4.325 -6.637,-8.354 -11.642,-12.086 -5.007,-3.733 -10.264,-5.924 -15.774,-6.577 -1.236,-0.165 -2.443,-0.248 -3.622,-0.248 -5.148,0 -9.746,1.579 -13.796,4.736 -4.976,3.882 -7.82,11.006 -8.531,21.373 -0.297,9.539 0.178,18.306 1.422,26.305 1.244,7.998 2.488,14.07 3.732,18.217 -2.074,2.725 -5.806,4.68 -11.197,5.866 -4.918,-7.347 -11.095,-14.545 -18.529,-21.595 -7.436,-7.051 -15.389,-12.383 -23.861,-15.996 -4.656,-1.986 -9.232,-2.979 -13.726,-2.979 -3.684,0 -7.314,0.667 -10.89,2.001 -4.147,1.6 -7.895,4.487 -11.242,8.665 -3.348,4.176 -5.406,9.508 -6.176,15.996 -0.77,6.487 0.652,14.026 4.266,22.616 4.976,9.479 10.944,16.115 17.906,19.907 6.552,3.568 12.673,5.353 18.36,5.353 0.354,0 0.707,-0.007 1.058,-0.021 5.983,-0.238 9.982,-1.63 11.997,-4.177 1.777,-2.488 2.607,-5.02 2.488,-7.598 -0.119,-2.578 -0.83,-5.021 -2.132,-7.332 4.206,1.244 9.389,2.192 15.551,2.844 5.924,6.161 11.345,11.878 16.263,17.151 11.138,12.145 23.224,24.261 36.258,36.347 -3.663,0.979 -7.816,1.469 -12.457,1.469 -1.816,0 -3.706,-0.075 -5.672,-0.225 -6.991,-0.533 -12.916,-1.688 -17.774,-3.466 -3.851,-1.363 -7.095,-2.71 -9.731,-4.043 -2.637,-1.333 -4.77,-2.622 -6.398,-3.866 -1.63,-1.244 -2.859,-2.429 -3.688,-3.554 -0.83,-1.126 -1.377,-2.148 -1.644,-3.066 -0.266,-0.92 -0.371,-1.704 -0.311,-2.355 0.059,-0.653 0.267,-1.364 0.622,-2.133 0.77,-0.652 1.406,-1.215 1.911,-1.689 0.502,-0.474 0.903,-0.977 1.199,-1.51 0.296,-0.534 0.356,-1.022 0.178,-1.466 -0.178,-0.445 -0.711,-0.786 -1.599,-1.023 -1.506,-0.283 -2.933,-0.425 -4.28,-0.425 -3.158,0 -5.878,0.779 -8.162,2.337 -3.259,2.221 -5.332,5.42 -6.221,9.597 -0.888,4.177 -0.296,8.723 1.778,13.641 2.251,6.398 7.42,11.804 15.508,16.219 8.086,4.412 17.386,7.316 27.904,8.709 3.58,0.473 7.107,0.71 10.578,0.71"
       style="fill:#f7ee0a;fill-opacity:1;fill-rule:nonzero;stroke:none"
       transform="matrix(1.3333333,0,0,-1.3333333,655.7151,129.20611)"
       clip-path="url(#clipPath20)" />
    <path
       id="path21"
       d="m 0,0 c -0.76,0 -1.587,0.025 -2.458,0.075 -4.499,0.256 -8.987,0.859 -13.339,1.793 -6.236,1.337 -7.954,2.512 -8.756,3.387 l -0.134,0.147 -0.104,0.171 c -2.888,4.793 -5.613,9.282 -8.175,13.467 -3.061,4.895 -6.414,10.397 -9.976,16.374 -5.332,-5.761 -11.096,-11.606 -17.165,-17.405 -3.468,-3.385 -6.614,-6.538 -9.339,-9.358 -1.367,-1.613 -3.401,-2.432 -6.048,-2.432 -0.608,0 -1.259,0.044 -1.937,0.131 -3.083,0.393 -6.508,1.316 -10.18,2.742 -3.566,1.386 -6.945,2.851 -10.042,4.356 l -2.293,1.114 1.627,1.962 c 7.464,9 13.815,16.176 18.876,21.327 5.026,5.112 10.129,10.016 15.169,14.578 0.289,0.33 0.609,0.645 0.954,0.94 1.673,1.803 4.705,2.683 9.515,2.767 0.346,0.007 0.692,0.009 1.038,0.009 3.974,0 8.055,-0.404 12.131,-1.202 4.052,-0.416 7.723,-1.03 10.912,-1.826 3.624,-0.904 6.139,-2.324 7.688,-4.339 l 0.068,-0.094 c 2.911,-4.278 6.324,-9.109 10.144,-14.358 C -7.79,28.729 -3.923,23.231 -0.327,17.978 3.336,12.626 6.138,7.987 8,4.188 L 8.689,2.782 7.489,1.775 C 6.044,0.564 3.665,0 0,0"
       style="fill:#eb431e;fill-opacity:1;fill-rule:nonzero;stroke:none"
       transform="matrix(1.3333333,0,0,-1.3333333,409.86027,141.47304)"
       clip-path="url(#clipPath22)" />
    <path
       id="path23"
       d="m 0,0 c -0.359,0 -0.717,-0.003 -1.074,-0.009 -5.321,-0.093 -8.788,-1.151 -10.865,-3.321 -0.354,-0.308 -0.686,-0.635 -0.993,-0.977 -5.042,-4.567 -10.145,-9.472 -15.171,-14.585 -5.1,-5.191 -11.489,-12.408 -18.99,-21.453 l -3.253,-3.924 4.584,-2.227 c 3.146,-1.529 6.575,-3.016 10.192,-4.422 3.823,-1.485 7.407,-2.447 10.652,-2.862 0.76,-0.097 1.497,-0.147 2.19,-0.147 3.99,0 6.284,1.646 7.528,3.086 2.703,2.797 5.822,5.921 9.27,9.287 5.392,5.152 10.561,10.358 15.402,15.512 3.065,-5.115 5.962,-9.856 8.643,-14.141 2.531,-4.136 5.279,-8.663 8.147,-13.422 l 0.206,-0.342 0.27,-0.295 c 1.528,-1.668 4.371,-2.825 9.812,-3.992 4.45,-0.954 9.041,-1.572 13.644,-1.834 0.908,-0.051 1.773,-0.078 2.571,-0.078 4.162,0 6.951,0.713 8.775,2.244 l 2.4,2.013 -1.378,2.812 c -1.905,3.886 -4.756,8.609 -8.473,14.039 -3.606,5.267 -7.482,10.778 -11.52,16.381 -3.819,5.247 -7.219,10.061 -10.118,14.321 l -0.065,0.096 -0.071,0.092 c -1.836,2.387 -4.711,4.042 -8.789,5.06 -3.259,0.813 -6.994,1.44 -11.102,1.866 C 8.252,-0.411 4.073,0 0,0 m 0,-4 c 3.892,0 7.837,-0.394 11.834,-1.183 4.012,-0.408 7.587,-1.004 10.724,-1.786 3.138,-0.783 5.334,-1.989 6.586,-3.618 2.963,-4.355 6.358,-9.157 10.18,-14.409 4.021,-5.579 7.843,-11.013 11.464,-16.302 3.623,-5.291 6.351,-9.804 8.182,-13.539 -1.039,-0.872 -3.109,-1.309 -6.205,-1.309 -0.725,0 -1.506,0.024 -2.344,0.072 -4.415,0.251 -8.759,0.835 -13.033,1.752 -4.272,0.916 -6.84,1.842 -7.7,2.782 -2.891,4.796 -5.619,9.29 -8.182,13.478 -3.485,5.572 -7.263,11.793 -11.337,18.663 -5.828,-6.396 -12.126,-12.826 -18.893,-19.292 -3.518,-3.434 -6.666,-6.589 -9.444,-9.465 -0.974,-1.18 -2.493,-1.771 -4.56,-1.771 -0.526,0 -1.087,0.039 -1.684,0.115 -2.94,0.375 -6.176,1.251 -9.71,2.623 -3.532,1.372 -6.829,2.802 -9.892,4.291 7.466,9.002 13.72,16.069 18.764,21.202 5.044,5.131 10.102,9.991 15.174,14.579 0.272,0.32 0.576,0.619 0.914,0.898 1.22,1.399 3.94,2.136 8.158,2.21 C -0.67,-4.003 -0.335,-4 0,-4"
       style="fill:#f7ee0a;fill-opacity:1;fill-rule:nonzero;stroke:none"
       transform="matrix(1.3333333,0,0,-1.3333333,339.50613,63.945437)"
       clip-path="url(#clipPath24)" />
    <text
       id="text24"
       xml:space="preserve"
       x="268.82681"
       y="385.08502"
       style="font-size:16px;stroke-width:1.33333"><tspan
         style="font-variant:normal;font-weight:normal;font-stretch:normal;font-size:56px;font-family:'Bauhaus 93';writing-mode:lr-tb;fill:#ffffff;fill-opacity:1;fill-rule:nonzero;stroke:none;stroke-width:1.33333"
         x="268.82681 295.76279 341.2348 355.2348 387.04282 418.8508 440.0188"
         y="385.08502"
         sodipodi:role="line"
         id="tspan24">FM 68.7</tspan></text>
  </g>
</svg>
