<?xml version="1.0" encoding="UTF-8" standalone="no"?>
<!-- Created with Inkscape (http://www.inkscape.org/) -->

<svg
   version="1.1"
   id="svg1"
   width="807.35193"
   height="437.6413"
   viewBox="0 0 807.35192 437.64129"
   sodipodi:docname="Radio Hôla - Logo Solid Svart.pdf"
   xmlns:inkscape="http://www.inkscape.org/namespaces/inkscape"
   xmlns:sodipodi="http://sodipodi.sourceforge.net/DTD/sodipodi-0.dtd"
   xmlns="http://www.w3.org/2000/svg"
   xmlns:svg="http://www.w3.org/2000/svg">
  <defs
     id="defs1">
    <clipPath
       clipPathUnits="userSpaceOnUse"
       id="clipPath3">
      <path
         d="M 0,841.89 H 1190.551 V 0 H 0 Z"
         transform="translate(-806.3266,-739.84072)"
         id="path3" />
    </clipPath>
    <clipPath
       clipPathUnits="userSpaceOnUse"
       id="clipPath5">
      <path
         d="M 0,841.89 H 1190.551 V 0 H 0 Z"
         transform="translate(-803.91002,-733.72532)"
         id="path5" />
    </clipPath>
    <clipPath
       clipPathUnits="userSpaceOnUse"
       id="clipPath7">
      <path
         d="M 0,841.89 H 1190.551 V 0 H 0 Z"
         transform="translate(-660.70331,-582.00871)"
         id="path7" />
    </clipPath>
    <clipPath
       clipPathUnits="userSpaceOnUse"
       id="clipPath9">
      <path
         d="M 0,841.89 H 1190.551 V 0 H 0 Z"
         transform="translate(-848.4733,-493.13881)"
         id="path9" />
    </clipPath>
    <clipPath
       clipPathUnits="userSpaceOnUse"
       id="clipPath11">
      <path
         d="M 0,841.89 H 1190.551 V 0 H 0 Z"
         transform="translate(-799.60329,-551.17882)"
         id="path11" />
    </clipPath>
    <clipPath
       clipPathUnits="userSpaceOnUse"
       id="clipPath13">
      <path
         d="M 0,841.89 H 1190.551 V 0 H 0 Z"
         transform="translate(-747.87332,-539.37881)"
         id="path13" />
    </clipPath>
    <clipPath
       clipPathUnits="userSpaceOnUse"
       id="clipPath15">
      <path
         d="M 0,841.89 H 1190.551 V 0 H 0 Z"
         transform="translate(-517.26931,-654.86831)"
         id="path15" />
    </clipPath>
    <clipPath
       clipPathUnits="userSpaceOnUse"
       id="clipPath17">
      <path
         d="M 0,841.89 H 1190.551 V 0 H 0 Z"
         transform="translate(-634.66631,-567.10271)"
         id="path17" />
    </clipPath>
    <clipPath
       clipPathUnits="userSpaceOnUse"
       id="clipPath19">
      <path
         d="M 0,841.89 H 1190.551 V 0 H 0 Z"
         transform="translate(-764.25669,-490.76581)"
         id="path19" />
    </clipPath>
    <clipPath
       clipPathUnits="userSpaceOnUse"
       id="clipPath21">
      <path
         d="M 0,841.89 H 1190.551 V 0 H 0 Z"
         transform="translate(-737.92172,-535.99912)"
         id="path21" />
    </clipPath>
    <clipPath
       clipPathUnits="userSpaceOnUse"
       id="clipPath23">
      <path
         d="M 0,841.89 H 1190.551 V 0 H 0 Z"
         transform="translate(-526.87141,-643.13351)"
         id="path23" />
    </clipPath>
  </defs>
  <sodipodi:namedview
     id="namedview1"
     pagecolor="#ffffff"
     bordercolor="#000000"
     borderopacity="0.25"
     inkscape:showpageshadow="2"
     inkscape:pageopacity="0.0"
     inkscape:pagecheckerboard="0"
     inkscape:deskcolor="#d1d1d1">
    <inkscape:page
       x="0"
       y="0"
       width="807.35193"
       height="437.6413"
       id="page2"
       margin="0"
       bleed="0" />
  </sodipodi:namedview>
  <g
     id="layer-MC0"
     inkscape:groupmode="layer"
     inkscape:label="Layer 2"
     style="display:none"
     transform="translate(-414.87012,-136.06574)">
    <path
       id="path1"
       d="m 929.667,230.112 h -700 v 431.556 h 700 z"
       style="fill:#ed173b;fill-opacity:1;fill-rule:nonzero;stroke:none"
       transform="matrix(1.3333333,0,0,-1.3333333,0,1122.52)" />
  </g>
  <g
     id="layer-MC1"
     inkscape:groupmode="layer"
     inkscape:label="Layer 1"
     transform="translate(-414.87012,-136.06574)">
    <path
       id="path2"
       d="m 0,0 h -384.833 c -29.473,0 -57.182,-11.477 -78.023,-32.318 -20.84,-20.84 -32.318,-48.549 -32.318,-78.022 v -107.55 c 0,-29.473 11.478,-57.182 32.318,-78.023 20.841,-20.84 48.55,-32.318 78.023,-32.318 H 0 c 29.473,0 57.182,11.478 78.022,32.318 20.841,20.841 32.318,48.55 32.318,78.023 v 107.55 c 0,29.473 -11.477,57.182 -32.318,78.022 C 57.182,-11.477 29.473,0 0,0 m 0,-3 c 59.282,0 107.34,-48.058 107.34,-107.34 V -217.89 C 107.34,-277.173 59.282,-325.231 0,-325.231 h -384.833 c -59.283,0 -107.341,48.058 -107.341,107.341 v 107.55 c 0,59.282 48.058,107.34 107.341,107.34 z"
       style="fill:#100f0d;fill-opacity:1;fill-rule:nonzero;stroke:none"
       transform="matrix(1.3333333,0,0,-1.3333333,1075.1021,136.06573)"
       clip-path="url(#clipPath3)" />
    <path
       id="path4"
       d="m 0,0 h -380 c -58.816,0 -106.667,-47.85 -106.667,-106.667 V -209.333 C -486.667,-268.149 -438.816,-316 -380,-316 H 0 c 58.816,0 106.667,47.851 106.667,106.667 v 102.666 C 106.667,-47.85 58.816,0 0,0 m 0,-10 c 53.387,0 96.667,-43.279 96.667,-96.667 V -209.333 C 96.667,-262.721 53.387,-306 0,-306 h -380 c -53.388,0 -96.667,43.279 -96.667,96.667 v 102.666 c 0,53.388 43.279,96.667 96.667,96.667 z"
       style="fill:#100f0d;fill-opacity:1;fill-rule:nonzero;stroke:none"
       transform="matrix(1.3333333,0,0,-1.3333333,1071.88,144.2196)"
       clip-path="url(#clipPath5)" />
    <text
       id="text5"
       xml:space="preserve"
       transform="matrix(1.3333333,0,0,1.3333333,846.60613,264.7336)"><tspan
         id="tspan5"
         style="font-variant:normal;font-weight:normal;font-stretch:normal;font-size:98.8567px;font-family:'Bauhaus 93';writing-mode:lr-tb;fill:#100f0d;fill-opacity:1;fill-rule:nonzero;stroke:none"
         x="0"
         dx="0 1.977134 -1.977134 -3.954268 -3.954268"
         y="0">radio</tspan></text>
    <path
       id="path6"
       d="m 0,0 c 0.63,1.57 0.49,3.31 -0.39,4.9 -0.46,0.82 -1.05,1.61 -1.74,2.36 -0.35,0.37 -0.76,0.75 -1.22,1.16 0,0.04 0,0.38 0.27,1.15 0.1,0.29 0.38,0.92 1.18,1.93 0.46,0.58 1.38,1.56 3.13,2.88 1.49,1.13 3.5,2.33 5.97,3.58 2.52,1.27 5.69,2.58 9.42,3.88 3.85,1.34 8.49,2.45 13.8,3.29 2.73,0.44 5.3,0.68 7.68,0.74 C 31.47,13.38 24.79,1.25 18.19,-10.25 11.32,-22.23 4.17,-33.29 -3.08,-43.18 c -5.07,2.03 -10.71,2.32 -16.74,0.83 -4.18,-1.03 -8.11,-2.62 -11.73,-4.76 4.25,9.39 7.42,19.95 9.46,31.57 l 0.03,0.18 c 0.64,5.53 0.77,10.79 0.39,15.76 0.52,-0.45 1.06,-0.87 1.64,-1.27 2.97,-2.05 6.49,-3.08 10.48,-3.08 1.57,0 3.25,0.16 5.02,0.49 l 0.25,0.06 C -2.11,-2.82 -0.67,-1.68 0,0 m -135.58,57.53 c 3.15,-1.53 6.58,-3.02 10.19,-4.42 1.32,-0.52 2.62,-0.97 3.88,-1.35 -1.75,-0.41 -3.5,-0.87 -5.22,-1.37 -6.39,-1.86 -12.32,-4.64 -17.63,-8.27 -0.73,-0.5 -1.45,-1.03 -2.14,-1.57 2.29,5.65 4.72,11.51 7.28,17.55 l 0.05,0.12 c 0.11,0.3 0.22,0.59 0.32,0.89 z m 71.32,-5.93 c -7.48,2.12 -15.81,3.24 -24.95,3.34 h -0.01 c -4.67,0 -9.58,-0.2 -14.66,-0.59 2.43,2.49 5.15,5.21 8.11,8.1 5.4,5.16 10.58,10.37 15.42,15.53 3.07,-5.12 5.97,-9.86 8.63,-14.11 2.33,-3.81 4.82,-7.9 7.46,-12.27 m 2.85,0.11 c -2.88,4.76 -5.63,9.3 -8.18,13.46 -3.15,5.05 -6.62,10.75 -10.32,16.95 -5.45,-5.91 -11.36,-11.92 -17.59,-17.86 -3.49,-3.41 -6.65,-6.58 -9.38,-9.41 -0.26,-0.32 -0.56,-0.6 -0.88,-0.83 -1.55,-1.22 -3.78,-1.66 -6.66,-1.3 -0.44,0.06 -0.89,0.12 -1.35,0.21 -2.68,0.46 -5.61,1.3 -8.71,2.51 -3.56,1.38 -6.92,2.84 -10.01,4.34 l -1.72,0.83 1.22,1.47 c 7.46,8.99 13.8,16.16 18.85,21.3 5.04,5.12 10.15,10.03 15.19,14.6 0.26,0.3 0.59,0.63 0.95,0.93 1.5,1.66 4.51,2.52 9.15,2.6 4.29,0.08 8.7,-0.32 13.11,-1.19 4,-0.41 7.66,-1.02 10.84,-1.81 3.46,-0.86 5.96,-2.26 7.42,-4.16 2.96,-4.35 6.38,-9.19 10.2,-14.44 4.05,-5.62 7.91,-11.11 11.49,-16.34 3.65,-5.33 6.44,-9.95 8.29,-13.72 l 0.52,-1.06 -0.9,-0.75 c -1.33,-1.12 -3.68,-1.66 -7.17,-1.66 -0.75,0 -1.57,0.02 -2.43,0.07 -4.48,0.26 -8.94,0.86 -13.26,1.78 -6.1,1.31 -7.75,2.42 -8.5,3.24 l -0.06,0.07 m -184.61,-39.49 2.66,-2.54 c -1.81,-4.24 -3.84,-8.51 -6.06,-12.74 -2.64,-5.05 -5.93,-9.45 -9.77,-13.09 -6.15,-5.27 -9.54,-6.06 -11.02,-6.06 -0.26,0 -0.51,0.02 -0.74,0.07 -0.39,0.08 -1.67,1.93 -1.1,8.72 0.15,-0.36 0.33,-0.71 0.54,-1.05 l 0.31,-0.43 c 1.4,-1.68 3.24,-2.57 5.32,-2.57 1.78,0 3.57,0.66 5.45,2.01 2.76,1.97 5.31,5.07 7.58,9.21 2.23,4.07 3.62,8.63 4.11,13.54 0.34,3.3 0,6.52 -0.99,9.63 0.9,-1.62 2.14,-3.19 3.71,-4.7 m 176.5,-33.08 c -2.48,-8.44 -5.94,-15.79 -10.3,-21.84 -4.33,-6.01 -8.89,-10.55 -13.55,-13.49 -4.1,-2.58 -7.61,-3.66 -10.45,-3.18 -3.58,1.17 -5.47,3.37 -6.09,7.09 -0.77,4.53 -0.09,9.63 2.01,15.15 2.13,5.6 5.37,10.41 9.55,14.22 2.79,2.39 5.63,4.01 8.44,4.82 2.72,0.79 5.24,1.19 7.5,1.19 0.2,0 0.4,-0.01 0.6,-0.01 2.52,-0.08 5.44,-0.56 8.69,-1.42 l 4.06,-1.09 c -0.15,-0.48 -0.3,-0.96 -0.46,-1.44 m 178.46,-84.31 c -1.26,-5 -3.89,-10.17 -7.81,-15.38 -3.95,-5.23 -9.65,-9.67 -16.94,-13.2 l -0.15,-0.06 c -3.06,-1.09 -6.23,-1.65 -9.43,-1.65 -3.87,0 -7.89,0.82 -11.93,2.43 -7.2,2.86 -14.34,7.18 -21.24,12.85 -6.83,5.61 -13.22,11.61 -18.99,17.82 -5.74,6.19 -10.54,11.61 -14.27,16.1 -1.11,1.33 -2.13,2.52 -3.04,3.56 -7.86,-4.78 -15.4,-7.25 -22.4,-7.34 h -0.56 c -7.12,0 -13.45,1.74 -18.83,5.18 -6.63,4.53 -9.7,9.67 -9.14,15.31 0.01,0.16 0.03,0.33 0.05,0.5 0.07,0.49 0.15,0.99 0.26,1.47 0.3,1.43 0.75,2.84 1.35,4.2 -0.9,-1.23 -1.82,-2.41 -2.75,-3.57 -0.44,-0.53 -0.87,-1.04 -1.3,-1.55 -7.65,-8.97 -16.46,-15.71 -26.28,-20.08 -7.98,-3.55 -16.35,-5.34 -24.88,-5.34 -4.61,0 -9.37,0.52 -14.15,1.56 -10.37,2.51 -18.41,7.35 -23.9,14.41 -5.47,7.03 -8.49,15.58 -8.98,25.42 -0.49,9.73 1.5,20.2 5.89,31.09 3.93,9.18 9.94,17.25 17.88,23.98 7.93,6.72 16.41,11.24 25.2,13.42 5.38,1.21 9.85,0.94 13.35,-0.78 3.46,-1.69 6.17,-4.21 8.06,-7.48 1.81,-3.14 3.12,-6.47 3.9,-9.89 0.75,-3.35 1.26,-7.46 1.5,-12.2 l 0.1,-2.06 -1.99,0.53 c -3.43,0.92 -6.54,1.42 -9.26,1.51 -0.22,0 -0.44,0.01 -0.67,0.01 -2.49,0 -5.25,-0.44 -8.19,-1.29 -3.16,-0.91 -6.31,-2.7 -9.37,-5.32 -4.54,-4.13 -7.99,-9.26 -10.27,-15.23 -2.26,-5.94 -2.98,-11.48 -2.14,-16.46 0.79,-4.69 3.4,-7.67 7.98,-9.11 0.58,-0.11 1.25,-0.17 1.93,-0.17 3.05,0 6.55,1.24 10.43,3.68 4.93,3.11 9.73,7.87 14.24,14.14 4.53,6.28 8.12,13.88 10.68,22.59 3.86,11.72 4.79,22 2.77,30.57 -2,8.45 -7.05,14.11 -15.43,17.3 -8.42,3.2 -20.74,2.52 -36.47,-2.03 -3.79,-1.38 -7.06,-2.76 -9.68,-4.09 -2.61,-1.31 -4.74,-2.6 -6.35,-3.81 -1.58,-1.19 -2.78,-2.32 -3.58,-3.36 -0.8,-1.03 -1.35,-1.96 -1.65,-2.77 -0.3,-0.77 -0.44,-1.43 -0.44,-1.96 0,-0.43 0.05,-0.88 0.17,-1.35 0.7,-0.57 1.28,-1.1 1.73,-1.58 0.56,-0.59 1.02,-1.21 1.37,-1.85 0.66,-1.18 0.51,-2.15 0.26,-2.75 -0.36,-0.92 -1.22,-1.55 -2.6,-1.92 l -0.11,-0.02 c -5.43,-1.02 -10,-0.28 -13.57,2.19 -3.57,2.47 -5.87,6.04 -6.84,10.61 -0.03,0.16 -0.06,0.31 -0.09,0.47 -0.13,0.71 -0.23,1.43 -0.28,2.16 -0.12,1.54 -0.07,3.12 0.16,4.73 -0.58,-1.54 -1.14,-3.06 -1.68,-4.55 -0.26,-0.71 -0.52,-1.42 -0.77,-2.12 -1.25,-3.46 -2.42,-6.8 -3.52,-10.04 -2.91,-8.82 -5.15,-18.67 -6.64,-29.28 -1.49,-10.6 -2.03,-20.48 -1.59,-29.38 0.43,-8.65 2.03,-14.83 4.77,-18.38 2.04,-2.19 4.17,-3.54 6.3,-3.98 2.31,-0.48 4.46,-0.64 6.28,-0.5 3.03,0.27 5.27,-0.27 6.55,-1.64 l 0.24,-0.31 0.07,-0.19 c 1.39,-3.73 0.59,-8.71 -2.36,-14.79 -2.86,-5.86 -6.97,-11.34 -12.23,-16.31 -5.37,-5.06 -11.16,-8.04 -17.23,-8.86 -1.29,-0.23 -2.58,-0.34 -3.83,-0.34 -5.51,0 -10.49,2.24 -14.81,6.67 -5.22,5.35 -8.23,15.08 -8.96,28.94 0.23,18.33 2.06,34.92 5.41,49.4 3.35,14.43 6.63,26.35 9.77,35.44 l 0.24,0.82 c -6.4,1.7 -12.93,4.27 -19.41,7.62 -0.56,-1.29 -1.06,-2.53 -1.51,-3.71 -0.61,-1.6 -1.28,-3.4 -1.98,-5.33 -1.02,-2.98 -2.61,-7.29 -4.73,-12.78 -5.6,-14.25 -12.53,-26.52 -20.58,-36.48 -8.1,-10.01 -16.54,-17.24 -25.08,-21.48 -8.74,-4.34 -16.84,-4.96 -23.97,-1.84 -4.5,2.25 -8.59,6.26 -12.22,11.96 -3.59,5.64 -6,12.84 -7.15,21.39 -1.15,8.53 -0.2,18.39 2.81,29.31 4.28,13.15 9.92,22.75 16.77,28.55 6.89,5.83 13.63,8.99 20.04,9.4 0.59,0.03 1.15,0.05 1.7,0.05 6.01,0 10.27,-1.72 12.67,-5.12 l 0.06,-0.1 c 2.53,-4.23 3.57,-8.76 3.1,-13.46 -0.47,-4.58 -1.75,-8.82 -3.83,-12.6 -2.08,-3.8 -4.38,-6.62 -6.84,-8.38 -2.98,-2.14 -5.59,-2.02 -7.4,0.14 l -0.09,0.12 c -0.74,1.22 -0.87,2.55 -0.39,3.9 0.34,0.99 0.81,2.05 1.38,3.14 0.71,1.29 1.22,2.55 1.51,3.73 0.13,0.53 0.14,1.26 -0.91,2.26 -0.17,0.14 -0.3,0.16 -0.4,0.16 -0.22,0 -0.86,-0.13 -2.03,-1.32 -1.6,-1.61 -2.97,-4.87 -4.09,-9.68 -0.58,-4.7 -1,-12.79 2.84,-13.6 3.35,-0.72 8.08,1.53 13.96,6.58 4.05,3.82 7.52,8.47 10.31,13.78 2.83,5.41 5.37,10.89 7.53,16.27 0.66,1.62 1.31,3.19 1.96,4.7 -0.04,0 -0.08,-0.01 -0.12,0 -2.11,0 -3.36,-0.69 -4.05,-2.25 l -0.87,-1.94 -1.54,1.47 c -3.14,3 -4.73,6.24 -4.73,9.61 0,3.25 0.84,6.12 2.48,8.55 1.68,2.46 3.52,4 5.48,4.57 2.07,0.51 4.07,0.7 5.99,0.58 1.55,-0.11 3.37,-0.47 5.4,-1.09 2.23,6.03 4.03,11.06 5.34,14.94 1.01,3.2 2.22,6.7 3.57,10.39 1.23,3.32 2.87,7.54 4.89,12.55 -1.1,0.12 -2.21,0.17 -3.32,0.17 -5.26,0 -10.79,-1.28 -16.45,-3.81 -3.94,-1.68 -7.31,-3.39 -10.01,-5.09 -2.69,-1.69 -4.91,-3.36 -6.62,-4.96 -1.67,-1.58 -2.96,-3.11 -3.83,-4.54 -0.88,-1.44 -1.5,-2.76 -1.85,-3.91 -0.34,-1.14 -0.51,-2.13 -0.51,-2.96 0,-0.74 0.08,-1.5 0.24,-2.27 0.68,-0.77 1.25,-1.48 1.7,-2.11 0.53,-0.74 0.98,-1.53 1.32,-2.33 0.42,-1 0.52,-1.97 0.29,-2.88 -0.2,-0.79 -0.82,-1.83 -2.64,-2.31 -5.54,-1.37 -10.18,-0.4 -13.77,2.85 -3.47,3.14 -5.71,7.66 -6.65,13.42 -0.92,5.66 -0.34,11.87 1.74,18.45 l 0.03,0.1 c 4.21,9.69 10.1,17.11 17.54,22.12 7.36,4.95 15.41,8.31 23.92,9.97 8.43,1.65 16.53,2.29 24.19,1.9 5.25,-0.33 9.88,-1.96 13.74,-4.85 3.78,-2.83 6.86,-6.22 9.15,-10.07 2.27,-3.83 3.73,-7.43 4.36,-10.7 l 0.06,-0.34 -0.09,-0.33 c -1.61,-6.11 -4.14,-13.43 -7.52,-21.78 -3.24,-7.99 -7.9,-18.86 -13.86,-32.33 7.24,-2.64 14.06,-4.31 20.28,-4.97 5.12,13.07 10.06,24.16 14.67,32.96 4.75,9.03 10.25,18.23 16.35,27.34 l 0.47,0.7 0.84,-0.04 c 4.4,-0.18 7.74,-2.84 9.93,-7.9 2.11,-4.87 2.29,-9.7 0.55,-14.36 -3.29,-7.76 -6.36,-15.21 -9.2,-22.33 -0.35,-0.88 -0.7,-1.75 -1.04,-2.61 -0.68,-1.73 -1.35,-3.44 -2,-5.12 1.01,1.52 2.11,2.96 3.29,4.3 0.6,0.7 1.22,1.36 1.86,2 1.74,1.75 3.63,3.32 5.66,4.71 5.08,3.48 10.77,6.15 16.91,7.94 3.37,0.98 6.81,1.78 10.28,2.4 2.8,0.51 5.61,0.89 8.44,1.16 0.15,0.01 0.3,0.03 0.45,0.04 6.14,0.56 12.08,0.85 17.64,0.85 h 0.01 c 21.88,-0.24 38.89,-6.46 50.56,-18.49 4.45,-4.59 7.9,-9.82 10.32,-15.67 0.32,-0.74 0.62,-1.5 0.89,-2.27 1.17,-3.23 2.05,-6.64 2.63,-10.22 0.12,-0.78 0.24,-1.57 0.33,-2.37 0.71,-5.74 0.69,-11.92 -0.07,-18.5 -2.28,-13.01 -5.99,-24.63 -11.07,-34.74 -0.35,-0.73 -0.72,-1.44 -1.1,-2.15 -0.8,-1.51 -1.64,-2.99 -2.52,-4.43 0.76,0.83 1.6,1.65 2.5,2.45 0.39,0.35 0.79,0.69 1.2,1.02 0.62,0.51 1.25,1 1.89,1.46 4.31,3.15 9.15,5.39 14.43,6.69 6.22,1.54 11.94,1.03 16.95,-1.51 7.72,10.37 15.33,22.08 22.63,34.8 C 27.6,1.12 34.94,14.5 42.19,28.27 38.57,28.54 34.5,28.32 30.03,27.6 24.57,26.73 19.79,25.59 15.8,24.2 11.97,22.86 8.7,21.51 6.08,20.19 3.47,18.87 1.33,17.59 -0.27,16.38 c -1.58,-1.19 -2.79,-2.32 -3.6,-3.33 -0.78,-0.99 -1.31,-1.89 -1.58,-2.67 -0.27,-0.79 -0.4,-1.45 -0.4,-1.96 0,-0.4 0.05,-0.84 0.17,-1.31 0.7,-0.57 1.28,-1.09 1.73,-1.57 0.55,-0.59 1.02,-1.21 1.37,-1.85 0.66,-1.18 0.5,-2.15 0.26,-2.76 -0.37,-0.92 -1.22,-1.54 -2.6,-1.91 l -0.11,-0.03 c -5.44,-1.02 -10,-0.27 -13.57,2.2 -1.34,0.92 -2.5,2 -3.48,3.23 -0.48,0.59 -0.91,1.22 -1.3,1.89 -0.95,1.62 -1.66,3.46 -2.1,5.48 -0.32,1.45 -0.47,2.94 -0.44,4.46 0,0.8 0.05,1.61 0.15,2.43 0.29,2.47 1,5.02 2.11,7.63 3.1,6.99 9.06,12.77 17.71,17.17 8.51,4.33 18.19,7.1 28.78,8.24 3.15,0.34 6.28,0.51 9.32,0.51 3.61,0 7.16,-0.24 10.65,-0.72 3.48,-0.48 6.89,-1.2 10.2,-2.15 9.58,-2.75 16.94,-7.95 21.86,-15.45 L 75.29,33.26 75,32.53 C 68.66,16.41 60.2,-0.47 49.87,-17.63 39.85,-34.28 30.25,-49.05 21.31,-61.52 c 1.27,-1.16 2.71,-2.54 4.29,-4.12 3.98,-3.87 8.82,-8.21 14.36,-12.91 5.49,-4.64 11.58,-8.67 18.11,-11.98 6.19,-3.14 12.64,-4.73 19.18,-4.73 0.23,0 0.46,0 0.72,0.01 l 0.78,-0.01 c 3.85,0 7.58,0.41 11.09,1.21 3.78,0.87 8.19,2.27 13.12,4.18 0.82,0.43 1.66,0.66 2.43,0.66 1.38,0 3.24,-0.68 4.22,-3.96 0.92,-3.04 0.73,-7.02 -0.56,-12.17 m -3.66,18.63 c -1.13,0 -2.3,-0.29 -3.47,-0.88 -4.76,-1.84 -9.01,-3.19 -12.63,-4.02 -3.33,-0.76 -6.88,-1.15 -10.54,-1.15 l -0.82,0.01 c -0.25,-0.01 -0.47,-0.01 -0.68,-0.01 -6.14,0 -12.21,1.5 -18.05,4.46 -6.36,3.22 -12.29,7.15 -17.62,11.66 -5.5,4.66 -10.3,8.96 -14.21,12.76 -0.97,0.97 -1.89,1.87 -2.75,2.69 8.61,12.14 17.82,26.35 27.4,42.27 10.4,17.29 18.91,34.29 25.31,50.54 l 0.75,1.92 -1.13,1.74 c -5.26,8.01 -13.08,13.56 -23.26,16.49 -3.42,0.98 -6.94,1.72 -10.54,2.22 -3.6,0.49 -7.27,0.74 -11,0.74 -3.13,0 -6.35,-0.17 -9.58,-0.52 -10.9,-1.17 -20.87,-4.03 -29.65,-8.5 -9.18,-4.67 -15.53,-10.86 -18.88,-18.42 -0.67,-1.57 -1.2,-3.12 -1.6,-4.65 -2.39,4.78 -5.49,9.13 -9.29,13.05 -3.46,3.56 -7.36,6.64 -11.69,9.22 2.94,-0.46 5.92,-0.78 8.91,-0.95 0.92,-0.06 1.78,-0.08 2.58,-0.08 4.16,0 6.95,0.71 8.77,2.24 l 2.4,2.01 -1.38,2.82 c -1.9,3.88 -4.75,8.61 -8.47,14.03 -3.59,5.25 -7.46,10.76 -11.53,16.4 -3.81,5.23 -7.21,10.05 -10.14,14.35 l -0.1,0.14 c -1.81,2.36 -4.77,4.06 -8.79,5.07 -3.26,0.81 -6.99,1.44 -11.1,1.86 -4.54,0.88 -9.08,1.29 -13.5,1.21 -5.32,-0.09 -8.79,-1.15 -10.87,-3.32 -0.35,-0.3 -0.68,-0.63 -0.99,-0.97 -5.04,-4.57 -10.14,-9.48 -15.17,-14.59 -5.1,-5.19 -11.49,-12.41 -18.99,-21.45 l -1.18,-1.43 c 0.66,4.02 0.1,8.1 -1.67,12.2 -3.25,7.5 -8.39,9.26 -12.13,9.41 l -2.24,0.09 -1.25,-1.86 c -6.15,-9.18 -11.7,-18.46 -16.48,-27.57 -4.44,-8.47 -9.18,-19.03 -14.08,-31.41 -4.77,0.65 -9.89,1.9 -15.28,3.72 5.45,12.36 9.75,22.41 12.79,29.93 3.43,8.44 5.99,15.88 7.63,22.09 l 0.23,0.87 -0.17,0.89 c -0.68,3.56 -2.24,7.43 -4.66,11.51 -2.46,4.14 -5.75,7.77 -9.8,10.8 -4.26,3.19 -9.34,4.98 -15.11,5.35 -7.86,0.4 -16.17,-0.25 -24.8,-1.94 -8.84,-1.73 -17.2,-5.22 -24.84,-10.36 -7.84,-5.27 -14.03,-13.06 -18.42,-23.18 l -0.14,-0.36 c -2.19,-6.96 -2.8,-13.55 -1.82,-19.6 1.04,-6.34 3.54,-11.35 7.44,-14.87 4.22,-3.81 9.59,-5.03 16.09,-3.42 2.3,0.61 3.92,2.1 4.43,4.12 0.36,1.42 0.21,2.97 -0.42,4.47 -0.41,0.97 -0.95,1.91 -1.59,2.81 -0.39,0.54 -0.85,1.13 -1.39,1.76 -0.05,0.4 -0.08,0.79 -0.08,1.16 0,0.4 0.07,1.12 0.41,2.24 0.28,0.95 0.82,2.07 1.58,3.33 0.76,1.24 1.91,2.59 3.42,4.02 1.58,1.49 3.68,3.06 6.23,4.66 2.59,1.63 5.84,3.28 9.71,4.92 5.22,2.34 10.3,3.55 15.12,3.6 -1.45,-3.63 -2.66,-6.76 -3.61,-9.35 -1.37,-3.73 -2.59,-7.27 -3.6,-10.46 -1.15,-3.39 -2.67,-7.67 -4.53,-12.73 -1.32,0.3 -2.55,0.5 -3.67,0.57 -2.18,0.14 -4.45,-0.07 -6.73,-0.63 l -0.12,-0.04 c -2.54,-0.74 -4.85,-2.61 -6.86,-5.57 -1.93,-2.84 -2.91,-6.19 -2.91,-9.95 0,-1.13 0.14,-2.23 0.42,-3.32 -0.33,0.67 -0.69,1.34 -1.08,2 l -0.16,0.24 c -2.89,4.09 -7.84,6.17 -14.71,6.17 -0.58,0 -1.2,-0.02 -1.86,-0.05 -6.96,-0.45 -14.19,-3.81 -21.49,-9.99 -7.21,-6.11 -13.11,-16.09 -17.53,-29.67 l -0.04,-0.13 c -3.1,-11.24 -4.07,-21.43 -2.88,-30.3 1.2,-8.91 3.73,-16.45 7.53,-22.4 3.87,-6.09 8.29,-10.4 13.2,-12.85 l 0.12,-0.06 c 7.81,-3.41 16.67,-2.78 26.09,1.9 8.86,4.4 17.57,11.85 25.9,22.14 8.22,10.16 15.27,22.65 20.97,37.15 2.13,5.52 3.74,9.86 4.74,12.82 0.71,1.92 1.37,3.71 1.98,5.3 0.14,0.38 0.29,0.77 0.45,1.16 4.99,-2.43 9.99,-4.4 14.95,-5.88 -2.99,-8.94 -6.1,-20.36 -9.26,-34 -3.4,-14.65 -5.24,-31.42 -5.48,-49.86 v -0.23 c 0.76,-14.48 4.01,-24.76 9.67,-30.55 4.81,-4.93 10.39,-7.43 16.6,-7.43 1.37,0 2.8,0.12 4.22,0.37 6.58,0.9 12.82,4.1 18.55,9.51 5.49,5.18 9.78,10.91 12.76,17.04 3.27,6.72 4.1,12.35 2.47,16.75 l -0.28,0.75 -0.55,0.59 c -1.56,1.66 -3.87,2.5 -6.88,2.5 -0.55,0 -1.13,-0.03 -1.69,-0.08 -1.6,-0.12 -3.51,0.03 -5.59,0.45 -1.57,0.33 -3.22,1.4 -4.9,3.17 -1.65,2.21 -3.68,6.91 -4.17,16.88 -0.43,8.73 0.09,18.46 1.56,28.9 1.47,10.46 3.68,20.17 6.54,28.83 0.72,2.12 1.47,4.29 2.26,6.51 1.38,-3.75 3.71,-6.78 6.97,-9.02 4.13,-2.86 9.26,-3.76 15.48,-2.59 l 0.26,0.06 c 2.17,0.57 3.61,1.72 4.28,3.4 0.63,1.57 0.49,3.3 -0.39,4.9 -0.46,0.82 -1.04,1.61 -1.75,2.35 -0.34,0.37 -0.75,0.76 -1.21,1.16 v 0.05 c 0,0.04 0,0.36 0.28,1.08 0.14,0.4 0.49,1.09 1.29,2.13 0.45,0.59 1.36,1.57 3.1,2.88 1.49,1.13 3.5,2.33 5.97,3.58 2.52,1.27 5.66,2.6 9.35,3.94 15.11,4.36 26.93,5.06 34.79,2.07 7.65,-2.91 12.06,-7.85 13.88,-15.53 1.63,-6.89 1.22,-15.01 -1.23,-24.25 l -0.08,1.55 c -0.24,4.89 -0.77,9.14 -1.56,12.63 -0.82,3.67 -2.23,7.23 -4.17,10.59 -2.14,3.71 -5.21,6.56 -9.12,8.48 -2.41,1.18 -5.2,1.78 -8.29,1.78 -2.06,0 -4.32,-0.27 -6.76,-0.82 -9.17,-2.28 -17.99,-6.97 -26.22,-13.95 -8.23,-6.98 -14.48,-15.35 -18.58,-24.95 -4.53,-11.23 -6.57,-22.04 -6.07,-32.15 0.51,-10.36 3.71,-19.39 9.5,-26.83 5.85,-7.51 14.36,-12.66 25.35,-15.31 4.95,-1.08 9.89,-1.62 14.68,-1.62 8.88,0 17.6,1.87 25.9,5.56 9.33,4.15 17.76,10.34 25.17,18.48 0.46,-4.31 2.93,-9.56 10.28,-14.58 5.78,-3.71 12.57,-5.58 20.17,-5.58 h 0.59 c 6.91,0.09 14.24,2.32 21.85,6.63 0.52,-0.61 1.06,-1.26 1.64,-1.94 3.75,-4.53 8.58,-9.99 14.36,-16.21 5.84,-6.29 12.31,-12.37 19.23,-18.05 7.1,-5.84 14.47,-10.29 21.9,-13.25 4.35,-1.72 8.67,-2.6 12.86,-2.6 3.49,0 6.94,0.61 10.36,1.83 l 0.31,0.13 c 7.65,3.7 13.65,8.39 17.85,13.95 4.12,5.47 6.89,10.94 8.24,16.27 1.4,5.6 1.57,10.01 0.52,13.51 -1.55,5.17 -5.14,5.73 -6.61,5.73"
       style="fill:#100f0d;fill-opacity:1;fill-rule:nonzero;stroke:none"
       transform="matrix(1.3333333,0,0,-1.3333333,880.93773,346.5084)"
       clip-path="url(#clipPath7)" />
    <path
       id="path8"
       d="m 0,0 c 1.3,-0.15 2.27,-0.53 2.99,-1.16 l 0.28,-0.31 0.09,-0.19 c 1.41,-3.09 0.58,-7.07 -2.45,-11.83 -2.84,-4.46 -6.88,-8.66 -12.01,-12.48 -5.2,-3.87 -10.74,-6.18 -16.48,-6.86 -1.29,-0.17 -2.58,-0.26 -3.81,-0.26 -5.47,0 -10.42,1.7 -14.72,5.05 -5.31,4.14 -8.37,11.7 -9.11,22.49 -0.3,9.6 0.19,18.55 1.44,26.6 1.17,7.54 2.37,13.48 3.55,17.65 -1.79,1.97 -4.78,3.49 -8.87,4.51 -4.87,-7.12 -10.98,-14.18 -18.16,-20.99 -7.53,-7.14 -15.71,-12.62 -24.31,-16.29 -8.79,-3.74 -17.46,-4.08 -25.74,-1 -4.38,1.7 -8.38,4.77 -11.87,9.13 -3.51,4.38 -5.7,10.02 -6.5,16.76 -0.8,6.72 0.68,14.58 4.37,23.38 l 0.06,0.11 c 5.09,9.7 11.32,16.61 18.52,20.53 7.17,3.9 13.97,5.77 20.19,5.51 6.51,-0.26 10.8,-1.82 13.14,-4.78 1.99,-2.78 2.92,-5.65 2.79,-8.56 -0.08,-1.71 -0.41,-3.39 -0.97,-5.01 3.52,0.84 7.61,1.52 12.18,2.02 5.75,5.99 11.09,11.62 15.87,16.74 10.51,11.46 22.04,23.07 34.26,34.49 -4.34,0.82 -9.34,1.01 -14.92,0.59 -6.82,-0.52 -12.67,-1.66 -17.38,-3.39 -3.79,-1.34 -7,-2.67 -9.56,-3.97 -2.54,-1.28 -4.62,-2.53 -6.17,-3.72 -1.5,-1.15 -2.64,-2.24 -3.39,-3.25 -0.72,-0.98 -1.19,-1.85 -1.41,-2.59 -0.21,-0.74 -0.3,-1.35 -0.25,-1.8 0.03,-0.41 0.15,-0.86 0.36,-1.35 0.67,-0.58 1.24,-1.09 1.7,-1.52 0.62,-0.58 1.12,-1.21 1.49,-1.87 0.65,-1.18 0.5,-2.15 0.25,-2.75 -0.36,-0.92 -1.22,-1.55 -2.6,-1.92 l -0.11,-0.02 c -5.42,-1.02 -9.99,-0.3 -13.56,2.14 -3.58,2.44 -5.88,5.98 -6.85,10.53 -0.94,4.45 -0.32,9.33 1.85,14.5 2.37,6.69 7.81,12.42 16.19,16.98 8.21,4.49 17.77,7.47 28.42,8.88 3.63,0.48 7.26,0.73 10.78,0.73 3.42,0 6.8,-0.23 10.13,-0.69 3.33,-0.45 6.61,-1.13 9.82,-2.03 9.61,-2.71 17.23,-7.95 22.66,-15.58 3.81,-0.25 6.67,-1.88 8.51,-4.85 1.99,-3.21 1.5,-7.53 -1.44,-12.83 C 5.19,98.65 0.93,90.41 -3.44,80.98 c -4.37,-9.44 -8.2,-19.34 -11.39,-29.42 -3.18,-10.02 -5.06,-19.45 -5.58,-28.03 -0.51,-8.31 0.97,-15 4.39,-19.9 1.64,-1.56 3.57,-2.57 5.65,-2.92 2.04,-0.35 4.01,-0.53 5.86,-0.53 0.26,0 0.52,0.01 0.81,0.01 1.44,0 2.68,-0.06 3.7,-0.19 m -12.45,50.81 c 3.16,9.98 6.96,19.78 11.28,29.12 4.33,9.35 8.55,17.51 12.6,24.32 3.42,6.16 3.89,11.33 1.39,15.37 -2.06,3.32 -5.25,5.34 -9.28,5.91 -5.71,7.6 -13.56,12.84 -23.34,15.6 -3.31,0.93 -6.71,1.64 -10.16,2.11 -3.45,0.47 -6.95,0.71 -10.47,0.71 -3.63,0 -7.37,-0.25 -11.11,-0.75 -10.95,-1.45 -20.81,-4.53 -29.29,-9.16 -8.9,-4.86 -14.72,-11.01 -17.32,-18.29 -2.35,-5.62 -3.01,-10.97 -1.96,-15.91 1.1,-5.2 3.76,-9.26 7.88,-12.07 2.95,-2.01 6.45,-3.03 10.41,-3.03 1.59,0 3.28,0.16 5.06,0.5 l 0.25,0.05 c 2.17,0.58 3.61,1.73 4.28,3.41 0.63,1.56 0.49,3.3 -0.39,4.89 -0.49,0.89 -1.15,1.72 -1.96,2.48 -0.36,0.34 -0.78,0.72 -1.26,1.15 -0.02,0.06 -0.02,0.1 -0.02,0.12 0,0 -0.02,0.26 0.16,0.88 0.08,0.26 0.31,0.84 1.03,1.81 0.41,0.56 1.25,1.49 2.89,2.75 1.43,1.09 3.37,2.26 5.78,3.47 2.46,1.25 5.58,2.54 9.29,3.86 4.49,1.64 10.12,2.73 16.71,3.23 3.27,0.25 6.33,0.28 9.15,0.09 -10.83,-10.28 -21.08,-20.69 -30.51,-30.97 -4.6,-4.92 -9.71,-10.32 -15.21,-16.06 -2.74,-0.31 -5.31,-0.7 -7.69,-1.14 0.07,0.54 0.12,1.09 0.14,1.63 0.16,3.49 -0.92,6.89 -3.23,10.11 l -0.08,0.12 c -2.82,3.56 -7.73,5.44 -15.01,5.73 -6.68,0.26 -13.92,-1.69 -21.49,-5.82 -7.63,-4.16 -14.21,-11.41 -19.55,-21.59 l -0.13,-0.28 c -3.87,-9.19 -5.4,-17.48 -4.55,-24.63 0.85,-7.22 3.22,-13.28 7.03,-18.03 3.77,-4.72 8.12,-8.05 12.95,-9.91 8.87,-3.31 18.22,-2.96 27.59,1.04 8.88,3.79 17.3,9.43 25.05,16.78 6.82,6.46 12.69,13.16 17.48,19.91 2.1,-0.65 3.8,-1.47 5.02,-2.43 -1.08,-4.14 -2.16,-9.66 -3.21,-16.45 -1.28,-8.21 -1.77,-17.31 -1.47,-27.05 l 0.01,-0.11 c 0.79,-11.52 4.17,-19.7 10.06,-24.29 4.75,-3.7 10.22,-5.58 16.26,-5.58 1.34,0 2.74,0.09 4.1,0.28 6.18,0.73 12.13,3.2 17.68,7.34 5.38,4 9.62,8.42 12.63,13.14 3.51,5.52 4.39,10.3 2.62,14.21 L 5.28,0.16 4.63,0.73 c -1.1,0.96 -2.52,1.54 -4.32,1.76 -1.13,0.13 -2.47,0.21 -4.07,0.2 -0.26,0 -0.51,-0.01 -0.75,-0.01 -1.71,0 -3.54,0.17 -5.44,0.49 -1.5,0.26 -2.91,0.98 -4.2,2.14 -2.96,4.41 -4.23,10.48 -3.76,18.07 0.51,8.37 2.34,17.6 5.46,27.43"
       style="fill:#100f0d;fill-opacity:1;fill-rule:nonzero;stroke:none"
       transform="matrix(1.3333333,0,0,-1.3333333,1131.2977,465.0016)"
       clip-path="url(#clipPath9)" />
    <path
       id="path10"
       d="m 0,0 c 1.72,-0.51 3.22,-1.27 4.47,-2.26 2.61,6.22 5.41,11.91 8.31,16.94 1.11,1.92 2.26,3.87 3.44,5.83 -0.93,-1.06 -1.89,-2.16 -2.87,-3.3 C 9.78,13.07 5.29,7.28 0,0"
       style="fill:#100f0d;fill-opacity:1;fill-rule:nonzero;stroke:none"
       transform="matrix(1.3333333,0,0,-1.3333333,1066.1377,387.61493)"
       clip-path="url(#clipPath11)" />
    <path
       id="path12"
       d="m 0,0 c -2.42,-0.83 -3.34,-0.93 -3.87,-0.93 -0.36,0 -0.67,0.05 -0.94,0.17 l -0.13,0.06 c -1.76,1.09 -2.65,2.8 -2.65,5.01 0,2.2 1.11,4.03 3.28,5.43 0.32,0.31 0.66,0.9 0.95,1.7 0.27,0.76 0.33,1.45 0.18,2.03 -0.02,0.08 -0.06,0.22 -0.68,0.22 -0.85,0 -1.93,-0.57 -3.13,-1.65 -1.31,-1.19 -2.53,-3.14 -3.61,-5.82 -0.89,-4.19 -0.37,-7.01 1.53,-8.38 2.05,-1.49 5.05,-1.65 8.91,-0.49 2.84,0.85 5.78,2.43 8.77,4.72 C 4.85,1.38 1.96,0.68 0,0"
       style="fill:#100f0d;fill-opacity:1;fill-rule:nonzero;stroke:none"
       transform="matrix(1.3333333,0,0,-1.3333333,997.1644,403.34827)"
       clip-path="url(#clipPath13)" />
    <path
       id="path14"
       d="m 0,0 c -1.955,4.514 -4.83,6.85 -8.62,7.006 -6.103,-9.108 -11.524,-18.178 -16.263,-27.207 -4.741,-9.032 -9.746,-20.319 -15.018,-33.864 -7.11,0.622 -14.872,2.529 -23.284,5.722 6.279,14.167 11.109,25.416 14.486,33.747 3.377,8.329 5.865,15.53 7.465,21.602 -0.593,3.113 -1.986,6.52 -4.177,10.218 -2.192,3.696 -5.11,6.908 -8.754,9.633 -3.643,2.725 -7.953,4.243 -12.93,4.555 -7.524,0.388 -15.463,-0.234 -23.816,-1.869 -8.354,-1.635 -16.145,-4.886 -23.372,-9.75 -7.229,-4.865 -12.886,-12.009 -16.974,-21.428 -2.014,-6.384 -2.577,-12.301 -1.688,-17.749 0.888,-5.45 2.946,-9.633 6.176,-12.552 3.229,-2.92 7.361,-3.758 12.397,-2.512 0.889,0.234 1.407,0.643 1.555,1.227 0.147,0.584 0.074,1.226 -0.222,1.926 -0.297,0.701 -0.682,1.382 -1.155,2.044 -0.475,0.66 -1.097,1.42 -1.867,2.277 -0.237,1.011 -0.355,2.003 -0.355,2.978 0,0.973 0.191,2.102 0.578,3.387 0.384,1.284 1.051,2.703 1.999,4.261 0.947,1.557 2.311,3.171 4.088,4.847 1.777,1.673 4.057,3.386 6.843,5.138 2.784,1.751 6.19,3.482 10.22,5.195 7.82,3.503 15.314,4.671 22.483,3.503 -2.37,-5.838 -4.236,-10.608 -5.599,-14.303 -1.363,-3.699 -2.548,-7.144 -3.554,-10.335 -1.422,-4.204 -3.377,-9.654 -5.866,-16.348 -2.488,0.856 -4.621,1.343 -6.398,1.46 -1.777,0.117 -3.614,-0.059 -5.51,-0.526 -1.599,-0.467 -3.141,-1.792 -4.621,-3.97 -1.481,-2.181 -2.222,-4.75 -2.222,-7.707 0,-2.959 1.422,-5.8 4.266,-8.525 1.185,2.646 3.762,3.62 7.731,2.92 -0.888,-2.025 -1.808,-4.204 -2.754,-6.54 -2.193,-5.449 -4.725,-10.918 -7.599,-16.405 -2.874,-5.49 -6.413,-10.218 -10.619,-14.189 -6.34,-5.449 -11.435,-7.764 -15.285,-6.948 -3.852,0.818 -5.185,5.936 -3.999,15.356 1.184,5.138 2.679,8.62 4.487,10.452 1.807,1.827 3.302,2.236 4.488,1.225 1.244,-1.168 1.702,-2.414 1.378,-3.737 -0.326,-1.324 -0.875,-2.685 -1.644,-4.087 -0.534,-1.012 -0.964,-1.985 -1.289,-2.919 -0.326,-0.934 -0.253,-1.791 0.222,-2.569 1.302,-1.558 3.095,-1.518 5.377,0.117 2.279,1.635 4.412,4.263 6.398,7.881 1.985,3.621 3.199,7.629 3.644,12.029 0.444,4.396 -0.52,8.582 -2.888,12.552 -2.311,3.27 -6.666,4.748 -13.064,4.438 -6.103,-0.39 -12.486,-3.406 -19.151,-9.05 -6.665,-5.646 -12.101,-14.928 -16.307,-27.85 -2.963,-10.743 -3.881,-20.3 -2.755,-28.667 1.125,-8.37 3.435,-15.298 6.932,-20.785 3.495,-5.49 7.345,-9.284 11.553,-11.386 6.753,-2.958 14.321,-2.353 22.705,1.811 8.383,4.162 16.574,11.189 24.572,21.076 7.998,9.886 14.781,21.913 20.35,36.082 2.133,5.527 3.702,9.77 4.71,12.729 0.711,1.945 1.378,3.736 2,5.371 0.622,1.635 1.347,3.386 2.177,5.255 7.405,-3.97 14.752,-6.851 22.039,-8.641 -0.237,-0.779 -0.475,-1.558 -0.711,-2.336 -3.141,-9.108 -6.384,-20.884 -9.731,-35.324 -3.347,-14.441 -5.14,-30.768 -5.376,-48.985 0.711,-13.545 3.555,-22.866 8.531,-27.966 4.977,-5.098 10.753,-7.065 17.329,-5.897 5.806,0.778 11.286,3.601 16.441,8.466 5.154,4.866 9.122,10.158 11.908,15.881 2.784,5.721 3.555,10.257 2.31,13.603 -0.948,1.013 -2.725,1.402 -5.332,1.168 -2.014,-0.155 -4.252,0.021 -6.709,0.525 -2.459,0.508 -4.843,2.005 -7.154,4.496 -2.963,3.814 -4.665,10.236 -5.11,19.267 -0.444,9.03 0.089,18.917 1.6,29.66 1.511,10.743 3.746,20.591 6.709,29.544 5.568,16.425 12.944,35.458 22.128,57.101 C 2.133,-8.914 1.955,-4.516 0,0"
       style="fill:#100f0d;fill-opacity:1;fill-rule:nonzero;stroke:none"
       transform="matrix(1.3333333,0,0,-1.3333333,689.6924,249.36227)"
       clip-path="url(#clipPath15)" />
    <path
       id="path16"
       d="m 0,0 c 2.311,20.084 -2.252,36.021 -13.686,47.811 -11.434,11.789 -27.935,17.802 -49.499,18.04 -5.687,0 -11.672,-0.297 -17.951,-0.889 -6.28,-0.593 -12.427,-1.764 -18.44,-3.51 -6.013,-1.748 -11.508,-4.325 -16.485,-7.731 -4.976,-3.408 -9.035,-7.896 -12.174,-13.464 -2.015,-4.859 -2.577,-9.391 -1.689,-13.597 0.889,-4.207 2.962,-7.435 6.221,-9.686 3.257,-2.252 7.405,-2.904 12.441,-1.955 0.889,0.236 1.422,0.578 1.6,1.022 0.178,0.444 0.118,0.933 -0.178,1.466 -0.297,0.533 -0.681,1.052 -1.155,1.555 -0.475,0.502 -1.126,1.081 -1.955,1.733 -0.238,0.769 -0.356,1.511 -0.356,2.222 0,0.711 0.178,1.54 0.534,2.488 0.355,0.947 0.977,2 1.866,3.155 0.888,1.155 2.177,2.368 3.865,3.644 1.689,1.273 3.88,2.591 6.577,3.954 2.695,1.362 5.998,2.755 9.908,4.177 16.174,4.679 28.66,5.345 37.458,2 8.798,-3.348 14.248,-9.465 16.351,-18.352 2.102,-8.887 1.169,-19.344 -2.799,-31.37 -2.608,-8.887 -6.236,-16.56 -10.886,-23.017 -4.652,-6.458 -9.54,-11.301 -14.663,-14.53 -5.125,-3.229 -9.642,-4.458 -13.552,-3.687 -5.155,1.599 -8.176,5.035 -9.065,10.308 -0.889,5.273 -0.148,11.02 2.222,17.24 2.368,6.221 5.923,11.494 10.664,15.819 3.257,2.784 6.576,4.666 9.953,5.643 3.377,0.978 6.487,1.422 9.331,1.333 2.844,-0.089 6.043,-0.608 9.598,-1.555 -0.238,4.679 -0.726,8.665 -1.467,11.953 -0.741,3.288 -1.985,6.442 -3.732,9.464 -1.748,3.021 -4.221,5.317 -7.42,6.887 -3.2,1.569 -7.318,1.791 -12.353,0.666 -8.591,-2.133 -16.782,-6.502 -24.572,-13.107 -7.791,-6.608 -13.612,-14.412 -17.462,-23.417 -4.325,-10.724 -6.252,-20.87 -5.777,-30.438 0.474,-9.568 3.362,-17.758 8.665,-24.571 5.301,-6.813 12.988,-11.433 23.061,-13.863 13.33,-2.902 26.023,-1.673 38.08,3.688 12.055,5.361 22.423,14.233 31.103,26.616 C -9.14,-33.474 -3.199,-18.188 0,0"
       style="fill:#100f0d;fill-opacity:1;fill-rule:nonzero;stroke:none"
       transform="matrix(1.3333333,0,0,-1.3333333,846.22173,366.38307)"
       clip-path="url(#clipPath17)" />
    <path
       id="path18"
       d="m 0,0 c -5.037,-1.955 -9.496,-3.377 -13.375,-4.266 -3.881,-0.888 -7.953,-1.302 -12.219,-1.244 -7.051,-0.118 -13.908,1.511 -20.572,4.888 -6.666,3.377 -12.797,7.434 -18.397,12.175 -5.597,4.739 -10.412,9.064 -14.441,12.974 -2.014,2.014 -3.762,3.673 -5.242,4.977 9.182,12.737 18.941,27.696 29.281,44.878 10.338,17.18 18.676,33.828 25.016,49.943 -4.74,7.228 -11.746,12.175 -21.016,14.841 -9.273,2.666 -19.139,3.436 -29.594,2.311 -10.457,-1.126 -19.877,-3.822 -28.259,-8.087 -8.385,-4.266 -14.057,-9.746 -17.018,-16.441 -2.075,-4.858 -2.653,-9.39 -1.733,-13.596 0.918,-4.208 3.006,-7.436 6.265,-9.687 3.257,-2.252 7.405,-2.903 12.441,-1.955 0.889,0.236 1.422,0.578 1.6,1.022 0.178,0.445 0.118,0.933 -0.178,1.466 -0.297,0.533 -0.682,1.052 -1.155,1.556 -0.475,0.502 -1.126,1.08 -1.955,1.732 -0.238,0.77 -0.356,1.496 -0.356,2.178 0,0.68 0.163,1.495 0.489,2.443 0.325,0.948 0.933,1.985 1.822,3.111 0.888,1.125 2.177,2.324 3.866,3.599 1.688,1.274 3.879,2.591 6.576,3.954 2.695,1.363 5.998,2.725 9.908,4.088 4.088,1.422 8.916,2.577 14.486,3.466 5.569,0.889 10.487,1.036 14.752,0.444 -7.642,-14.574 -15.271,-28.497 -22.883,-41.767 -7.614,-13.272 -15.45,-25.269 -23.506,-35.991 -4.977,2.902 -10.65,3.568 -17.018,1.999 -6.369,-1.571 -11.997,-4.518 -16.885,-8.842 -4.887,-4.325 -7.687,-9.109 -8.398,-14.352 -0.711,-5.244 2.102,-10.028 8.443,-14.352 5.272,-3.377 11.448,-5.021 18.528,-4.933 7.079,0.09 14.648,2.682 22.706,7.777 1.125,-1.245 2.429,-2.755 3.91,-4.533 3.733,-4.502 8.472,-9.848 14.218,-16.041 5.747,-6.189 12.028,-12.086 18.84,-17.683 6.813,-5.6 13.76,-9.805 20.84,-12.619 7.078,-2.814 13.848,-3.067 20.307,-0.756 7.109,3.436 12.574,7.687 16.396,12.752 3.821,5.066 6.338,10.013 7.553,14.842 C 5.256,-8.9 5.449,-5.11 4.621,-2.354 3.791,0.399 2.25,1.186 0,0"
       style="fill:#100f0d;fill-opacity:1;fill-rule:nonzero;stroke:none"
       transform="matrix(1.3333333,0,0,-1.3333333,1019.0089,468.1656)"
       clip-path="url(#clipPath19)" />
    <path
       id="path20"
       d="m 0,0 c -2.46,1.777 -3.155,5.124 -2.089,10.042 1.185,2.962 2.532,5.124 4.044,6.487 1.51,1.363 2.888,2.044 4.132,2.044 1.184,0 1.895,-0.444 2.133,-1.333 C 8.456,16.352 8.382,15.374 7.998,14.308 7.611,13.241 7.123,12.441 6.531,11.908 4.754,10.782 3.865,9.375 3.865,7.687 3.865,5.998 4.487,4.769 5.731,3.999 6.146,3.821 7.39,4.088 9.464,4.799 12.366,5.806 17.076,6.812 23.594,7.82 19.031,3.436 14.574,0.592 10.219,-0.711 5.865,-2.015 2.457,-1.777 0,0 m 87.667,48.344 c -0.533,-0.83 -1.066,-1.659 -1.6,-2.489 C 82.394,40.227 78.958,34.644 75.759,29.104 72.56,23.563 69.538,17.299 66.694,10.309 c -1.718,2.073 -4.236,3.377 -7.553,3.91 5.923,8.234 10.841,14.619 14.752,19.151 3.91,4.532 7.316,8.278 10.219,11.241 1.185,1.244 2.369,2.489 3.555,3.733 m 5.687,-88.512 c -3.673,5.213 -5.243,12.189 -4.709,20.928 0.533,8.738 2.413,18.203 5.642,28.393 3.229,10.19 7.05,20.054 11.465,29.593 4.412,9.538 8.664,17.743 12.752,24.616 2.666,4.799 3.154,8.561 1.467,11.286 -1.69,2.725 -4.37,4.118 -8.043,4.177 -5.274,7.701 -12.695,12.9 -22.262,15.597 -9.568,2.695 -19.61,3.346 -30.125,1.955 C 49.023,94.984 39.723,92.08 31.637,87.668 23.549,83.254 18.38,77.848 16.129,71.449 c -2.074,-4.918 -2.666,-9.464 -1.777,-13.64 0.888,-4.177 2.961,-7.376 6.22,-9.598 3.258,-2.222 7.406,-2.859 12.442,-1.911 0.888,0.236 1.422,0.578 1.599,1.022 0.178,0.445 0.118,0.933 -0.177,1.466 -0.297,0.533 -0.698,1.036 -1.2,1.511 -0.505,0.473 -1.141,1.036 -1.911,1.688 -0.355,0.77 -0.563,1.481 -0.622,2.133 -0.059,0.651 0.045,1.436 0.311,2.356 0.267,0.918 0.814,1.939 1.644,3.065 0.829,1.125 2.058,2.311 3.688,3.555 1.629,1.244 3.761,2.533 6.398,3.866 2.636,1.333 5.88,2.68 9.732,4.043 4.857,1.777 10.782,2.933 17.773,3.466 6.99,0.533 13.033,0.118 18.129,-1.244 C 75.344,61.141 63.258,49.024 52.12,36.88 47.202,31.606 41.781,25.89 35.857,19.729 c -6.162,-0.653 -11.345,-1.6 -15.551,-2.844 1.302,2.31 2.013,4.754 2.132,7.332 0.119,2.577 -0.71,5.109 -2.488,7.597 -2.014,2.547 -6.013,3.94 -11.997,4.177 -5.984,0.237 -12.457,-1.541 -19.418,-5.332 -6.962,-3.792 -12.93,-10.428 -17.906,-19.906 -3.614,-8.591 -5.036,-16.13 -4.266,-22.616 0.77,-6.489 2.828,-11.821 6.176,-15.996 3.347,-4.178 7.095,-7.066 11.242,-8.665 7.939,-2.962 16.144,-2.636 24.616,0.977 8.472,3.613 16.425,8.945 23.861,15.996 7.434,7.05 13.611,14.248 18.529,21.595 5.391,-1.186 9.123,-3.141 11.197,-5.865 -1.244,-4.148 -2.488,-10.22 -3.732,-18.218 -1.244,-7.998 -1.719,-16.766 -1.422,-26.305 0.711,-10.367 3.555,-17.491 8.531,-21.373 4.977,-3.879 10.783,-5.376 17.418,-4.487 5.51,0.652 10.767,2.844 15.774,6.576 5.006,3.733 8.886,7.762 11.642,12.086 2.754,4.325 3.539,7.791 2.355,10.397 -0.475,0.416 -1.2,0.682 -2.177,0.8 -0.978,0.119 -2.148,0.178 -3.511,0.178 -2.192,-0.059 -4.503,0.119 -6.931,0.533 -2.43,0.415 -4.621,1.571 -6.577,3.466"
       style="fill:#100f0d;fill-opacity:1;fill-rule:nonzero;stroke:none"
       transform="matrix(1.3333333,0,0,-1.3333333,983.8956,407.85453)"
       clip-path="url(#clipPath21)" />
    <path
       id="path22"
       d="m 0,0 c 3.063,-1.488 6.36,-2.918 9.892,-4.291 3.534,-1.372 6.769,-2.247 9.71,-2.623 2.942,-0.376 5.022,0.176 6.244,1.657 2.778,2.876 5.926,6.03 9.444,9.464 6.767,6.466 13.064,12.897 18.892,19.293 4.075,-6.871 7.853,-13.092 11.337,-18.663 2.564,-4.189 5.292,-8.682 8.183,-13.479 0.86,-0.939 3.427,-1.866 7.7,-2.782 4.274,-0.917 8.618,-1.5 13.033,-1.752 4.415,-0.252 7.266,0.161 8.548,1.237 -1.831,3.736 -4.559,8.249 -8.181,13.539 -3.621,5.29 -7.443,10.724 -11.464,16.302 -3.822,5.252 -7.217,10.055 -10.18,14.41 -1.252,1.628 -3.448,2.834 -6.586,3.617 -3.137,0.783 -6.712,1.378 -10.724,1.787 -4.341,0.856 -8.621,1.247 -12.839,1.174 C 38.791,38.816 36.072,38.079 34.852,36.68 34.514,36.4 34.209,36.101 33.938,35.781 28.866,31.194 23.808,26.334 18.763,21.202 13.72,16.069 7.466,9.002 0,0"
       style="fill:#100f0d;fill-opacity:1;fill-rule:nonzero;stroke:none"
       transform="matrix(1.3333333,0,0,-1.3333333,702.4952,265.00867)"
       clip-path="url(#clipPath23)" />
    <text
       id="text23"
       xml:space="preserve"
       transform="matrix(1.3333333,0,0,1.3333333,689.16733,528.94973)"><tspan
         id="tspan23"
         style="font-variant:normal;font-weight:normal;font-stretch:normal;font-size:42px;font-family:'Bauhaus 93';writing-mode:lr-tb;fill:#100f0d;fill-opacity:1;fill-rule:nonzero;stroke:none"
         x="0"
         y="0">FM 68.7</tspan></text>
  </g>
</svg>
